<svg width="520" height="520" viewBox="0 0 520 520" fill="none" xmlns="http://www.w3.org/2000/svg">
<mask id="mask0" mask-type="alpha" maskUnits="userSpaceOnUse" x="25" y="25" width="470" height="470">
<circle cx="260" cy="260" r="235" fill="white"/>
</mask>
<g mask="url(#mask0)">
<circle cx="268" cy="268" r="235" fill="#A156FF"/>
<circle cx="260" cy="260" r="235" fill="white"/>
<path d="M255.99 352.76C300.17 352.76 323.905 330.67 323.905 285.55V184.5H213.22V226.33H269.15V288.84C269.15 302.235 262.805 309.285 251.29 309.285C242.125 309.285 233.9 303.88 225.205 293.07L195.36 328.32C208.99 344.3 230.375 352.76 255.99 352.76Z" fill="#4123F8"/>
<path d="M246.99 347.76C234.143 347.76 222.472 345.723 211.975 341.65C201.635 337.42 193.097 331.31 186.36 323.32L216.205 288.07C220.592 293.553 224.9 297.627 229.13 300.29C233.36 302.953 237.747 304.285 242.29 304.285C248.087 304.285 252.473 302.562 255.45 299.115C258.583 295.668 260.15 290.577 260.15 283.84V221.33H204.22V179.5H314.905V280.55C314.905 302.953 309.108 319.795 297.515 331.075C286.078 342.198 269.237 347.76 246.99 347.76Z" fill="#D7AFFF"/>
</g>
</svg>
