<svg width="1188" height="726" viewBox="0 0 1188 726" fill="none" xmlns="http://www.w3.org/2000/svg">
<g clip-path="url(#clip0)">
<rect width="1188" height="726" fill="#181818"/>
<path d="M509.072 350.016C509.072 343.36 510.448 337.44 513.2 332.256C516.016 327.008 519.984 322.944 525.104 320.064C530.224 317.12 536.112 315.648 542.768 315.648C551.216 315.648 558.32 317.92 564.08 322.464C569.84 326.944 573.552 333.056 575.216 340.8H554.96C553.744 338.24 552.048 336.288 549.872 334.944C547.76 333.6 545.296 332.928 542.48 332.928C538.128 332.928 534.64 334.496 532.016 337.632C529.456 340.704 528.176 344.832 528.176 350.016C528.176 355.264 529.456 359.456 532.016 362.592C534.64 365.664 538.128 367.2 542.48 367.2C545.296 367.2 547.76 366.528 549.872 365.184C552.048 363.84 553.744 361.888 554.96 359.328H575.216C573.552 367.072 569.84 373.216 564.08 377.76C558.32 382.24 551.216 384.48 542.768 384.48C536.112 384.48 530.224 383.04 525.104 380.16C519.984 377.216 516.016 373.152 513.2 367.968C510.448 362.72 509.072 356.736 509.072 350.016ZM602.942 316.32V384H584.126V316.32H602.942ZM676.345 384H657.529L632.473 346.176V384H613.657V316.32H632.473L657.529 354.624V316.32H676.345V384ZM705.88 331.392V342.432H727.48V356.736H705.88V368.928H730.36V384H687.064V316.32H730.36V331.392H705.88ZM818.665 316.32V384H799.849V346.656L787.081 384H771.337L758.473 346.368V384H739.657V316.32H762.409L779.401 360.288L796.009 316.32H818.665ZM872.192 372.96H848.192L844.544 384H824.768L849.44 316.32H871.136L895.712 384H875.84L872.192 372.96ZM867.488 358.56L860.192 336.672L852.992 358.56H867.488ZM920.661 369.6H941.685V384H901.845V316.32H920.661V369.6ZM967.817 316.32V384H949.001V316.32H967.817ZM1004.07 384.672C996.196 384.672 989.732 382.816 984.676 379.104C979.62 375.328 976.9 369.952 976.516 362.976H996.58C996.772 365.344 997.476 367.072 998.692 368.16C999.908 369.248 1001.48 369.792 1003.4 369.792C1005.12 369.792 1006.53 369.376 1007.62 368.544C1008.77 367.648 1009.35 366.432 1009.35 364.896C1009.35 362.912 1008.42 361.376 1006.56 360.288C1004.71 359.2 1001.7 357.984 997.54 356.64C993.124 355.168 989.54 353.76 986.788 352.416C984.1 351.008 981.732 348.992 979.684 346.368C977.7 343.68 976.708 340.192 976.708 335.904C976.708 331.552 977.796 327.84 979.972 324.768C982.148 321.632 985.156 319.264 988.996 317.664C992.836 316.064 997.188 315.264 1002.05 315.264C1009.92 315.264 1016.2 317.12 1020.87 320.832C1025.6 324.48 1028.13 329.632 1028.45 336.288H1008C1007.94 334.24 1007.3 332.704 1006.08 331.68C1004.93 330.656 1003.43 330.144 1001.57 330.144C1000.16 330.144 999.012 330.56 998.116 331.392C997.22 332.224 996.772 333.408 996.772 334.944C996.772 336.224 997.252 337.344 998.212 338.304C999.236 339.2 1000.48 340 1001.96 340.704C1003.43 341.344 1005.6 342.176 1008.48 343.2C1012.77 344.672 1016.29 346.144 1019.04 347.616C1021.86 349.024 1024.26 351.04 1026.24 353.664C1028.29 356.224 1029.32 359.488 1029.32 363.456C1029.32 367.488 1028.29 371.104 1026.24 374.304C1024.26 377.504 1021.35 380.032 1017.51 381.888C1013.73 383.744 1009.25 384.672 1004.07 384.672ZM1089.04 316.32V331.296H1070.99V384H1052.18V331.296H1034.32V316.32H1089.04Z" fill="#FF99D6"/>
<path d="M545.474 432.336H554.258V435H542.198V409.908H545.474V432.336ZM556.513 425.064C556.513 423.048 556.921 421.284 557.737 419.772C558.553 418.236 559.669 417.048 561.085 416.208C562.525 415.368 564.121 414.948 565.873 414.948C567.601 414.948 569.101 415.32 570.373 416.064C571.645 416.808 572.593 417.744 573.217 418.872V415.272H576.529V435H573.217V431.328C572.569 432.48 571.597 433.44 570.301 434.208C569.029 434.952 567.541 435.324 565.837 435.324C564.085 435.324 562.501 434.892 561.085 434.028C559.669 433.164 558.553 431.952 557.737 430.392C556.921 428.832 556.513 427.056 556.513 425.064ZM573.217 425.1C573.217 423.612 572.917 422.316 572.317 421.212C571.717 420.108 570.901 419.268 569.869 418.692C568.861 418.092 567.745 417.792 566.521 417.792C565.297 417.792 564.181 418.08 563.173 418.656C562.165 419.232 561.361 420.072 560.761 421.176C560.161 422.28 559.861 423.576 559.861 425.064C559.861 426.576 560.161 427.896 560.761 429.024C561.361 430.128 562.165 430.98 563.173 431.58C564.181 432.156 565.297 432.444 566.521 432.444C567.745 432.444 568.861 432.156 569.869 431.58C570.901 430.98 571.717 430.128 572.317 429.024C572.917 427.896 573.217 426.588 573.217 425.1ZM586.061 417.972V429.6C586.061 430.56 586.265 431.244 586.673 431.652C587.081 432.036 587.789 432.228 588.797 432.228H591.209V435H588.257C586.433 435 585.065 434.58 584.153 433.74C583.241 432.9 582.785 431.52 582.785 429.6V417.972H580.229V415.272H582.785V410.304H586.061V415.272H591.209V417.972H586.061ZM613.178 424.38C613.178 425.004 613.142 425.664 613.07 426.36H597.302C597.422 428.304 598.082 429.828 599.282 430.932C600.506 432.012 601.982 432.552 603.71 432.552C605.126 432.552 606.302 432.228 607.238 431.58C608.198 430.908 608.87 430.02 609.254 428.916H612.782C612.254 430.812 611.198 432.36 609.614 433.56C608.03 434.736 606.062 435.324 603.71 435.324C601.838 435.324 600.158 434.904 598.67 434.064C597.206 433.224 596.054 432.036 595.214 430.5C594.374 428.94 593.954 427.14 593.954 425.1C593.954 423.06 594.362 421.272 595.178 419.736C595.994 418.2 597.134 417.024 598.598 416.208C600.086 415.368 601.79 414.948 603.71 414.948C605.582 414.948 607.238 415.356 608.678 416.172C610.118 416.988 611.222 418.116 611.99 419.556C612.782 420.972 613.178 422.58 613.178 424.38ZM609.794 423.696C609.794 422.448 609.518 421.38 608.966 420.492C608.414 419.58 607.658 418.896 606.698 418.44C605.762 417.96 604.718 417.72 603.566 417.72C601.91 417.72 600.494 418.248 599.318 419.304C598.166 420.36 597.506 421.824 597.338 423.696H609.794ZM624.486 435.324C622.974 435.324 621.618 435.072 620.418 434.568C619.218 434.04 618.27 433.32 617.574 432.408C616.878 431.472 616.494 430.404 616.422 429.204H619.806C619.902 430.188 620.358 430.992 621.174 431.616C622.014 432.24 623.106 432.552 624.45 432.552C625.698 432.552 626.682 432.276 627.402 431.724C628.122 431.172 628.482 430.476 628.482 429.636C628.482 428.772 628.098 428.136 627.33 427.728C626.562 427.296 625.374 426.876 623.766 426.468C622.302 426.084 621.102 425.7 620.166 425.316C619.254 424.908 618.462 424.32 617.79 423.552C617.142 422.76 616.818 421.728 616.818 420.456C616.818 419.448 617.118 418.524 617.718 417.684C618.318 416.844 619.17 416.184 620.274 415.704C621.378 415.2 622.638 414.948 624.054 414.948C626.238 414.948 628.002 415.5 629.346 416.604C630.69 417.708 631.41 419.22 631.506 421.14H628.23C628.158 420.108 627.738 419.28 626.97 418.656C626.226 418.032 625.218 417.72 623.946 417.72C622.77 417.72 621.834 417.972 621.138 418.476C620.442 418.98 620.094 419.64 620.094 420.456C620.094 421.104 620.298 421.644 620.706 422.076C621.138 422.484 621.666 422.82 622.29 423.084C622.938 423.324 623.826 423.6 624.954 423.912C626.37 424.296 627.522 424.68 628.41 425.064C629.298 425.424 630.054 425.976 630.678 426.72C631.326 427.464 631.662 428.436 631.686 429.636C631.686 430.716 631.386 431.688 630.786 432.552C630.186 433.416 629.334 434.1 628.23 434.604C627.15 435.084 625.902 435.324 624.486 435.324ZM640.307 417.972V429.6C640.307 430.56 640.511 431.244 640.919 431.652C641.327 432.036 642.035 432.228 643.043 432.228H645.455V435H642.503C640.679 435 639.311 434.58 638.399 433.74C637.487 432.9 637.031 431.52 637.031 429.6V417.972H634.475V415.272H637.031V410.304H640.307V415.272H645.455V417.972H640.307ZM682.746 414.912C684.282 414.912 685.65 415.236 686.85 415.884C688.05 416.508 688.998 417.456 689.694 418.728C690.39 420 690.738 421.548 690.738 423.372V435H687.498V423.84C687.498 421.872 687.006 420.372 686.022 419.34C685.062 418.284 683.754 417.756 682.098 417.756C680.394 417.756 679.038 418.308 678.03 419.412C677.022 420.492 676.518 422.064 676.518 424.128V435H673.278V423.84C673.278 421.872 672.786 420.372 671.802 419.34C670.842 418.284 669.534 417.756 667.878 417.756C666.174 417.756 664.818 418.308 663.81 419.412C662.802 420.492 662.298 422.064 662.298 424.128V435H659.022V415.272H662.298V418.116C662.946 417.084 663.81 416.292 664.89 415.74C665.994 415.188 667.206 414.912 668.526 414.912C670.182 414.912 671.646 415.284 672.918 416.028C674.19 416.772 675.138 417.864 675.762 419.304C676.314 417.912 677.226 416.832 678.498 416.064C679.77 415.296 681.186 414.912 682.746 414.912ZM704.716 435.324C702.868 435.324 701.188 434.904 699.676 434.064C698.188 433.224 697.012 432.036 696.148 430.5C695.308 428.94 694.888 427.14 694.888 425.1C694.888 423.084 695.32 421.308 696.184 419.772C697.072 418.212 698.272 417.024 699.784 416.208C701.296 415.368 702.988 414.948 704.86 414.948C706.732 414.948 708.424 415.368 709.936 416.208C711.448 417.024 712.636 418.2 713.5 419.736C714.388 421.272 714.832 423.06 714.832 425.1C714.832 427.14 714.376 428.94 713.464 430.5C712.576 432.036 711.364 433.224 709.828 434.064C708.292 434.904 706.588 435.324 704.716 435.324ZM704.716 432.444C705.892 432.444 706.996 432.168 708.028 431.616C709.06 431.064 709.888 430.236 710.512 429.132C711.16 428.028 711.484 426.684 711.484 425.1C711.484 423.516 711.172 422.172 710.548 421.068C709.924 419.964 709.108 419.148 708.1 418.62C707.092 418.068 706 417.792 704.824 417.792C703.624 417.792 702.52 418.068 701.512 418.62C700.528 419.148 699.736 419.964 699.136 421.068C698.536 422.172 698.236 423.516 698.236 425.1C698.236 426.708 698.524 428.064 699.1 429.168C699.7 430.272 700.492 431.1 701.476 431.652C702.46 432.18 703.54 432.444 704.716 432.444ZM726.483 431.976L732.603 415.272H736.095L728.355 435H724.539L716.799 415.272H720.327L726.483 431.976ZM741.011 412.068C740.387 412.068 739.859 411.852 739.427 411.42C738.995 410.988 738.779 410.46 738.779 409.836C738.779 409.212 738.995 408.684 739.427 408.252C739.859 407.82 740.387 407.604 741.011 407.604C741.611 407.604 742.115 407.82 742.523 408.252C742.955 408.684 743.171 409.212 743.171 409.836C743.171 410.46 742.955 410.988 742.523 411.42C742.115 411.852 741.611 412.068 741.011 412.068ZM742.595 415.272V435H739.319V415.272H742.595ZM766.178 424.38C766.178 425.004 766.142 425.664 766.07 426.36H750.302C750.422 428.304 751.082 429.828 752.282 430.932C753.506 432.012 754.982 432.552 756.71 432.552C758.126 432.552 759.302 432.228 760.238 431.58C761.198 430.908 761.87 430.02 762.254 428.916H765.782C765.254 430.812 764.198 432.36 762.614 433.56C761.03 434.736 759.062 435.324 756.71 435.324C754.838 435.324 753.158 434.904 751.67 434.064C750.206 433.224 749.054 432.036 748.214 430.5C747.374 428.94 746.954 427.14 746.954 425.1C746.954 423.06 747.362 421.272 748.178 419.736C748.994 418.2 750.134 417.024 751.598 416.208C753.086 415.368 754.79 414.948 756.71 414.948C758.582 414.948 760.238 415.356 761.678 416.172C763.118 416.988 764.222 418.116 764.99 419.556C765.782 420.972 766.178 422.58 766.178 424.38ZM762.794 423.696C762.794 422.448 762.518 421.38 761.966 420.492C761.414 419.58 760.658 418.896 759.698 418.44C758.762 417.96 757.718 417.72 756.566 417.72C754.91 417.72 753.494 418.248 752.318 419.304C751.166 420.36 750.506 421.824 750.338 423.696H762.794ZM777.486 435.324C775.974 435.324 774.618 435.072 773.418 434.568C772.218 434.04 771.27 433.32 770.574 432.408C769.878 431.472 769.494 430.404 769.422 429.204H772.806C772.902 430.188 773.358 430.992 774.174 431.616C775.014 432.24 776.106 432.552 777.45 432.552C778.698 432.552 779.682 432.276 780.402 431.724C781.122 431.172 781.482 430.476 781.482 429.636C781.482 428.772 781.098 428.136 780.33 427.728C779.562 427.296 778.374 426.876 776.766 426.468C775.302 426.084 774.102 425.7 773.166 425.316C772.254 424.908 771.462 424.32 770.79 423.552C770.142 422.76 769.818 421.728 769.818 420.456C769.818 419.448 770.118 418.524 770.718 417.684C771.318 416.844 772.17 416.184 773.274 415.704C774.378 415.2 775.638 414.948 777.054 414.948C779.238 414.948 781.002 415.5 782.346 416.604C783.69 417.708 784.41 419.22 784.506 421.14H781.23C781.158 420.108 780.738 419.28 779.97 418.656C779.226 418.032 778.218 417.72 776.946 417.72C775.77 417.72 774.834 417.972 774.138 418.476C773.442 418.98 773.094 419.64 773.094 420.456C773.094 421.104 773.298 421.644 773.706 422.076C774.138 422.484 774.666 422.82 775.29 423.084C775.938 423.324 776.826 423.6 777.954 423.912C779.37 424.296 780.522 424.68 781.41 425.064C782.298 425.424 783.054 425.976 783.678 426.72C784.326 427.464 784.662 428.436 784.686 429.636C784.686 430.716 784.386 431.688 783.786 432.552C783.186 433.416 782.334 434.1 781.23 434.604C780.15 435.084 778.902 435.324 777.486 435.324ZM797.685 425.064C797.685 423.048 798.093 421.284 798.909 419.772C799.725 418.236 800.841 417.048 802.257 416.208C803.697 415.368 805.293 414.948 807.045 414.948C808.773 414.948 810.273 415.32 811.545 416.064C812.817 416.808 813.765 417.744 814.389 418.872V415.272H817.701V435H814.389V431.328C813.741 432.48 812.769 433.44 811.473 434.208C810.201 434.952 808.713 435.324 807.009 435.324C805.257 435.324 803.673 434.892 802.257 434.028C800.841 433.164 799.725 431.952 798.909 430.392C798.093 428.832 797.685 427.056 797.685 425.064ZM814.389 425.1C814.389 423.612 814.089 422.316 813.489 421.212C812.889 420.108 812.073 419.268 811.041 418.692C810.033 418.092 808.917 417.792 807.693 417.792C806.469 417.792 805.353 418.08 804.345 418.656C803.337 419.232 802.533 420.072 801.933 421.176C801.333 422.28 801.033 423.576 801.033 425.064C801.033 426.576 801.333 427.896 801.933 429.024C802.533 430.128 803.337 430.98 804.345 431.58C805.353 432.156 806.469 432.444 807.693 432.444C808.917 432.444 810.033 432.156 811.041 431.58C812.073 430.98 812.889 430.128 813.489 429.024C814.089 427.896 814.389 426.588 814.389 425.1ZM832.849 414.912C835.249 414.912 837.193 415.644 838.681 417.108C840.169 418.548 840.913 420.636 840.913 423.372V435H837.673V423.84C837.673 421.872 837.181 420.372 836.197 419.34C835.213 418.284 833.869 417.756 832.165 417.756C830.437 417.756 829.057 418.296 828.025 419.376C827.017 420.456 826.513 422.028 826.513 424.092V435H823.237V415.272H826.513V418.08C827.161 417.072 828.037 416.292 829.141 415.74C830.269 415.188 831.505 414.912 832.849 414.912ZM845.04 425.064C845.04 423.048 845.448 421.284 846.264 419.772C847.08 418.236 848.196 417.048 849.612 416.208C851.052 415.368 852.66 414.948 854.436 414.948C855.972 414.948 857.4 415.308 858.72 416.028C860.04 416.724 861.048 417.648 861.744 418.8V408.36H865.056V435H861.744V431.292C861.096 432.468 860.136 433.44 858.864 434.208C857.592 434.952 856.104 435.324 854.4 435.324C852.648 435.324 851.052 434.892 849.612 434.028C848.196 433.164 847.08 431.952 846.264 430.392C845.448 428.832 845.04 427.056 845.04 425.064ZM861.744 425.1C861.744 423.612 861.444 422.316 860.844 421.212C860.244 420.108 859.428 419.268 858.396 418.692C857.388 418.092 856.272 417.792 855.048 417.792C853.824 417.792 852.708 418.08 851.7 418.656C850.692 419.232 849.888 420.072 849.288 421.176C848.688 422.28 848.388 423.576 848.388 425.064C848.388 426.576 848.688 427.896 849.288 429.024C849.888 430.128 850.692 430.98 851.7 431.58C852.708 432.156 853.824 432.444 855.048 432.444C856.272 432.444 857.388 432.156 858.396 431.58C859.428 430.98 860.244 430.128 860.844 429.024C861.444 427.896 861.744 426.588 861.744 425.1ZM895.634 409.908V412.572H888.794V435H885.518V412.572H878.642V409.908H895.634ZM920.403 409.908L910.935 435H907.155L897.687 409.908H901.179L909.063 431.544L916.947 409.908H920.403ZM937.675 420.42V423.192H923.311V420.42H937.675ZM951.779 435.252C950.123 435.252 948.635 434.964 947.315 434.388C946.019 433.788 944.999 432.972 944.255 431.94C943.511 430.884 943.127 429.672 943.103 428.304H946.595C946.715 429.48 947.195 430.476 948.035 431.292C948.899 432.084 950.147 432.48 951.779 432.48C953.339 432.48 954.563 432.096 955.451 431.328C956.363 430.536 956.819 429.528 956.819 428.304C956.819 427.344 956.555 426.564 956.027 425.964C955.499 425.364 954.839 424.908 954.047 424.596C953.255 424.284 952.187 423.948 950.843 423.588C949.187 423.156 947.855 422.724 946.847 422.292C945.863 421.86 945.011 421.188 944.291 420.276C943.595 419.34 943.247 418.092 943.247 416.532C943.247 415.164 943.595 413.952 944.291 412.896C944.987 411.84 945.959 411.024 947.207 410.448C948.479 409.872 949.931 409.584 951.563 409.584C953.915 409.584 955.835 410.172 957.323 411.348C958.835 412.524 959.687 414.084 959.879 416.028H956.279C956.159 415.068 955.655 414.228 954.767 413.508C953.879 412.764 952.703 412.392 951.239 412.392C949.871 412.392 948.755 412.752 947.891 413.472C947.027 414.168 946.595 415.152 946.595 416.424C946.595 417.336 946.847 418.08 947.351 418.656C947.879 419.232 948.515 419.676 949.259 419.988C950.027 420.276 951.095 420.612 952.463 420.996C954.119 421.452 955.451 421.908 956.459 422.364C957.467 422.796 958.331 423.48 959.051 424.416C959.771 425.328 960.131 426.576 960.131 428.16C960.131 429.384 959.807 430.536 959.159 431.616C958.511 432.696 957.551 433.572 956.279 434.244C955.007 434.916 953.507 435.252 951.779 435.252ZM974.744 414.912C976.232 414.912 977.576 415.236 978.776 415.884C979.976 416.508 980.912 417.456 981.584 418.728C982.28 420 982.628 421.548 982.628 423.372V435H979.388V423.84C979.388 421.872 978.896 420.372 977.912 419.34C976.928 418.284 975.584 417.756 973.88 417.756C972.152 417.756 970.772 418.296 969.74 419.376C968.732 420.456 968.228 422.028 968.228 424.092V435H964.952V408.36H968.228V418.08C968.876 417.072 969.764 416.292 970.892 415.74C972.044 415.188 973.328 414.912 974.744 414.912ZM996.583 435.324C994.735 435.324 993.055 434.904 991.543 434.064C990.055 433.224 988.879 432.036 988.015 430.5C987.175 428.94 986.755 427.14 986.755 425.1C986.755 423.084 987.187 421.308 988.051 419.772C988.939 418.212 990.139 417.024 991.651 416.208C993.163 415.368 994.855 414.948 996.727 414.948C998.599 414.948 1000.29 415.368 1001.8 416.208C1003.32 417.024 1004.5 418.2 1005.37 419.736C1006.26 421.272 1006.7 423.06 1006.7 425.1C1006.7 427.14 1006.24 428.94 1005.33 430.5C1004.44 432.036 1003.23 433.224 1001.7 434.064C1000.16 434.904 998.455 435.324 996.583 435.324ZM996.583 432.444C997.759 432.444 998.863 432.168 999.895 431.616C1000.93 431.064 1001.76 430.236 1002.38 429.132C1003.03 428.028 1003.35 426.684 1003.35 425.1C1003.35 423.516 1003.04 422.172 1002.42 421.068C1001.79 419.964 1000.98 419.148 999.967 418.62C998.959 418.068 997.867 417.792 996.691 417.792C995.491 417.792 994.387 418.068 993.379 418.62C992.395 419.148 991.603 419.964 991.003 421.068C990.403 422.172 990.103 423.516 990.103 425.1C990.103 426.708 990.391 428.064 990.967 429.168C991.567 430.272 992.359 431.1 993.343 431.652C994.327 432.18 995.407 432.444 996.583 432.444ZM1037.29 415.272L1031.13 435H1027.75L1022.99 419.34L1018.24 435H1014.86L1008.67 415.272H1012.01L1016.55 431.832L1021.45 415.272H1024.79L1029.58 431.868L1034.05 415.272H1037.29ZM1047.52 435.324C1046.01 435.324 1044.65 435.072 1043.45 434.568C1042.25 434.04 1041.31 433.32 1040.61 432.408C1039.91 431.472 1039.53 430.404 1039.46 429.204H1042.84C1042.94 430.188 1043.39 430.992 1044.21 431.616C1045.05 432.24 1046.14 432.552 1047.49 432.552C1048.73 432.552 1049.72 432.276 1050.44 431.724C1051.16 431.172 1051.52 430.476 1051.52 429.636C1051.52 428.772 1051.13 428.136 1050.37 427.728C1049.6 427.296 1048.41 426.876 1046.8 426.468C1045.34 426.084 1044.14 425.7 1043.2 425.316C1042.29 424.908 1041.5 424.32 1040.83 423.552C1040.18 422.76 1039.85 421.728 1039.85 420.456C1039.85 419.448 1040.15 418.524 1040.75 417.684C1041.35 416.844 1042.21 416.184 1043.31 415.704C1044.41 415.2 1045.67 414.948 1047.09 414.948C1049.27 414.948 1051.04 415.5 1052.38 416.604C1053.73 417.708 1054.45 419.22 1054.54 421.14H1051.27C1051.19 420.108 1050.77 419.28 1050.01 418.656C1049.26 418.032 1048.25 417.72 1046.98 417.72C1045.81 417.72 1044.87 417.972 1044.17 418.476C1043.48 418.98 1043.13 419.64 1043.13 420.456C1043.13 421.104 1043.33 421.644 1043.74 422.076C1044.17 422.484 1044.7 422.82 1045.33 423.084C1045.97 423.324 1046.86 423.6 1047.99 423.912C1049.41 424.296 1050.56 424.68 1051.45 425.064C1052.33 425.424 1053.09 425.976 1053.71 426.72C1054.36 427.464 1054.7 428.436 1054.72 429.636C1054.72 430.716 1054.42 431.688 1053.82 432.552C1053.22 433.416 1052.37 434.1 1051.27 434.604C1050.19 435.084 1048.94 435.324 1047.52 435.324Z" fill="white" fill-opacity="0.49"/>
<g clip-path="url(#clip1)">
<path d="M411.176 416.589H-228.896C-236.926 416.589 -243.444 423.106 -243.444 431.136V780.266C-243.444 820.357 -210.829 853 -170.709 853H352.986C393.107 853 425.721 820.357 425.721 780.266V431.136C425.722 423.105 419.206 416.589 411.176 416.589ZM396.628 780.264C396.628 804.326 377.048 823.905 352.987 823.905H-170.707C-194.769 823.905 -214.349 804.326 -214.349 780.264V445.682H396.628V780.264Z" fill="white"/>
<path d="M425.25 281.969L400.491 188.024C394.789 165.185 371.456 150.842 348.326 156.079L-237.805 295.148C-249.327 297.767 -259.074 304.778 -265.271 314.845C-271.468 324.911 -273.301 336.782 -270.392 348.303L-242.985 456.649C-241.355 463.224 -235.42 467.618 -228.904 467.618C-227.741 467.618 -226.547 467.502 -225.297 467.182C-217.529 465.233 -212.815 457.319 -214.794 449.522L-216.394 443.209L414.396 299.891C418.236 298.99 421.582 296.603 423.619 293.229C425.687 289.854 426.239 285.78 425.25 281.969ZM-223.52 414.987L-242.198 341.233C-243.158 337.393 -242.519 333.437 -240.481 330.061C-238.415 326.716 -235.157 324.388 -231.201 323.456L354.929 184.417C355.977 184.155 357.053 184.039 358.1 184.039C364.618 184.039 370.64 188.519 372.298 195.24L393.275 274.813L-223.52 414.987Z" fill="white"/>
<path d="M39.4401 418.101C32.2543 414.581 23.526 417.431 19.9174 424.618L-38.2713 540.995C-41.8499 548.18 -38.9409 556.909 -31.7538 560.517C-29.6304 561.565 -27.4183 562.06 -25.2362 562.06C-19.912 562.06 -14.7623 559.121 -12.2311 554.001L45.9576 437.625C49.5348 430.436 46.6259 421.708 39.4401 418.101Z" fill="white"/>
<path d="M184.91 418.101C177.753 414.581 169.024 417.431 165.387 424.618L107.198 540.995C103.62 548.18 106.529 556.909 113.716 560.517C115.839 561.565 118.051 562.06 120.233 562.06C125.558 562.06 130.707 559.121 133.239 554.001L191.427 437.625C195.006 430.436 192.095 421.708 184.91 418.101Z" fill="white"/>
<path d="M330.38 418.101C323.164 414.581 314.495 417.431 310.857 424.618L252.669 540.995C249.09 548.18 251.999 556.909 259.186 560.517C261.31 561.565 263.522 562.06 265.704 562.06C271.028 562.06 276.178 559.121 278.709 554.001L336.898 437.625C340.475 430.436 337.566 421.708 330.38 418.101Z" fill="white"/>
<path d="M411.176 532.964H-228.896C-236.926 532.964 -243.444 539.481 -243.444 547.511C-243.444 555.541 -236.926 562.059 -228.896 562.059H411.176C419.234 562.059 425.723 555.541 425.723 547.511C425.723 539.481 419.206 532.964 411.176 532.964Z" fill="white"/>
<path d="M54.1018 358.865L-46.1843 258.664C-51.8576 252.991 -61.0809 252.991 -66.7543 258.664C-72.4276 264.338 -72.4276 273.561 -66.7543 279.234L33.5045 379.435C36.3562 382.256 40.0794 383.683 43.8039 383.683C47.5284 383.683 51.2515 382.258 54.1032 379.435C59.7766 373.761 59.7766 364.538 54.1018 358.865Z" fill="white"/>
<path d="M196.316 326.541L96.203 226.312C90.5296 220.639 81.3063 220.639 75.6329 226.312C69.9596 231.986 69.9596 241.209 75.6329 246.882L175.746 347.111C178.598 349.933 182.321 351.359 186.045 351.359C189.77 351.359 193.493 349.963 196.316 347.111C201.989 341.438 201.989 332.215 196.316 326.541Z" fill="white"/>
<path d="M338.469 294.248L238.326 194.019C232.653 188.345 223.43 188.345 217.756 194.019C212.083 199.692 212.083 208.915 217.756 214.589L317.898 314.818C320.75 317.639 324.473 319.066 328.197 319.066C331.922 319.066 335.645 317.641 338.468 314.818C344.143 309.144 344.143 299.921 338.469 294.248Z" fill="white"/>
</g>
</g>
<defs>
<clipPath id="clip0">
<rect width="1188" height="726" fill="white"/>
</clipPath>
<clipPath id="clip1">
<rect width="698" height="698" fill="white" transform="translate(-272 155)"/>
</clipPath>
</defs>
</svg>
