<svg width="1188" height="726" viewBox="0 0 1188 726" fill="none" xmlns="http://www.w3.org/2000/svg">
<g clip-path="url(#clip0)">
<rect width="1188" height="726" fill="url(#paint0_linear)"/>
<path d="M525.224 372.344C518.184 372.344 511.848 370.872 506.216 367.928C500.648 364.92 496.264 360.76 493.064 355.448C489.864 350.136 488.264 344.12 488.264 337.4C488.264 330.68 489.864 324.664 493.064 319.352C496.264 314.04 500.648 309.912 506.216 306.968C511.848 303.96 518.184 302.456 525.224 302.456C531.368 302.456 536.904 303.544 541.832 305.72C546.76 307.896 550.856 311.032 554.12 315.128L542.024 326.072C537.672 320.824 532.392 318.2 526.184 318.2C522.536 318.2 519.272 319 516.392 320.6C513.576 322.2 511.368 324.472 509.768 327.416C508.232 330.296 507.464 333.624 507.464 337.4C507.464 341.176 508.232 344.536 509.768 347.48C511.368 350.36 513.576 352.6 516.392 354.2C519.272 355.8 522.536 356.6 526.184 356.6C532.392 356.6 537.672 353.976 542.024 348.728L554.12 359.672C550.856 363.768 546.76 366.904 541.832 369.08C536.904 371.256 531.368 372.344 525.224 372.344ZM562.595 303.8H581.603V371H562.595V303.8ZM659.062 303.8V371H643.414L613.75 335.192V371H595.126V303.8H610.774L640.438 339.608V303.8H659.062ZM726.422 356.312V371H672.47V303.8H725.174V318.488H691.286V329.816H721.142V344.024H691.286V356.312H726.422ZM797.642 371L797.45 335.384L780.17 364.376H771.722L754.538 336.344V371H736.97V303.8H752.618L776.234 342.584L799.274 303.8H814.922L815.114 371H797.642ZM873.588 357.944H845.172L839.892 371H820.5L850.164 303.8H868.884L898.644 371H878.868L873.588 357.944ZM868.02 343.928L859.38 322.424L850.74 343.928H868.02ZM904.033 303.8H923.041V355.928H955.105V371H904.033V303.8ZM962.626 303.8H981.634V371H962.626V303.8ZM1018.77 372.344C1013.33 372.344 1008.05 371.672 1002.93 370.328C997.814 368.984 993.654 367.192 990.454 364.952L996.694 350.936C999.702 352.92 1003.19 354.52 1007.16 355.736C1011.13 356.952 1015.03 357.56 1018.87 357.56C1026.17 357.56 1029.81 355.736 1029.81 352.088C1029.81 350.168 1028.76 348.76 1026.65 347.864C1024.6 346.904 1021.27 345.912 1016.66 344.888C1011.61 343.8 1007.38 342.648 1003.99 341.432C1000.6 340.152 997.686 338.136 995.254 335.384C992.822 332.632 991.605 328.92 991.605 324.248C991.605 320.152 992.726 316.472 994.966 313.208C997.206 309.88 1000.53 307.256 1004.95 305.336C1009.43 303.416 1014.9 302.456 1021.37 302.456C1025.78 302.456 1030.13 302.968 1034.42 303.992C1038.71 304.952 1042.49 306.392 1045.75 308.312L1039.89 322.424C1033.49 318.968 1027.29 317.24 1021.27 317.24C1017.49 317.24 1014.74 317.816 1013.01 318.968C1011.29 320.056 1010.42 321.496 1010.42 323.288C1010.42 325.08 1011.45 326.424 1013.49 327.32C1015.54 328.216 1018.84 329.144 1023.38 330.104C1028.5 331.192 1032.73 332.376 1036.05 333.656C1039.45 334.872 1042.36 336.856 1044.79 339.608C1047.29 342.296 1048.53 345.976 1048.53 350.648C1048.53 354.68 1047.41 358.328 1045.17 361.592C1042.93 364.856 1039.57 367.48 1035.09 369.464C1030.61 371.384 1025.17 372.344 1018.77 372.344ZM1070.68 318.872H1050.04V303.8H1110.23V318.872H1089.69V371H1070.68V318.872Z" fill="#FF4567"/>
<path d="M494 407.104H485.144V404.8H505.52V407.104H496.664V430H494V407.104ZM511.192 414.772C511.792 413.5 512.68 412.54 513.856 411.892C515.056 411.244 516.532 410.92 518.284 410.92V413.404L517.672 413.368C515.68 413.368 514.12 413.98 512.992 415.204C511.864 416.428 511.3 418.144 511.3 420.352V430H508.744V411.064H511.192V414.772ZM539.224 421.324H523.384C523.528 423.292 524.284 424.888 525.652 426.112C527.02 427.312 528.748 427.912 530.836 427.912C532.012 427.912 533.092 427.708 534.076 427.3C535.06 426.868 535.912 426.244 536.632 425.428L538.072 427.084C537.232 428.092 536.176 428.86 534.904 429.388C533.656 429.916 532.276 430.18 530.764 430.18C528.82 430.18 527.092 429.772 525.58 428.956C524.092 428.116 522.928 426.964 522.088 425.5C521.248 424.036 520.828 422.38 520.828 420.532C520.828 418.684 521.224 417.028 522.016 415.564C522.832 414.1 523.936 412.96 525.328 412.144C526.744 411.328 528.328 410.92 530.08 410.92C531.832 410.92 533.404 411.328 534.796 412.144C536.188 412.96 537.28 414.1 538.072 415.564C538.864 417.004 539.26 418.66 539.26 420.532L539.224 421.324ZM530.08 413.116C528.256 413.116 526.72 413.704 525.472 414.88C524.248 416.032 523.552 417.544 523.384 419.416H536.812C536.644 417.544 535.936 416.032 534.688 414.88C533.464 413.704 531.928 413.116 530.08 413.116ZM554.11 410.92C556.486 410.92 558.37 411.616 559.762 413.008C561.178 414.376 561.886 416.38 561.886 419.02V430H559.33V419.272C559.33 417.304 558.838 415.804 557.854 414.772C556.87 413.74 555.466 413.224 553.642 413.224C551.602 413.224 549.982 413.836 548.782 415.06C547.606 416.26 547.018 417.928 547.018 420.064V430H544.462V411.064H546.91V414.556C547.606 413.404 548.566 412.516 549.79 411.892C551.038 411.244 552.478 410.92 554.11 410.92ZM586.176 403.288V430H583.728V426.256C582.96 427.528 581.94 428.5 580.668 429.172C579.42 429.844 578.004 430.18 576.42 430.18C574.644 430.18 573.036 429.772 571.596 428.956C570.156 428.14 569.028 427 568.212 425.536C567.396 424.072 566.988 422.404 566.988 420.532C566.988 418.66 567.396 416.992 568.212 415.528C569.028 414.064 570.156 412.936 571.596 412.144C573.036 411.328 574.644 410.92 576.42 410.92C577.956 410.92 579.336 411.244 580.56 411.892C581.808 412.516 582.828 413.44 583.62 414.664V403.288H586.176ZM576.636 427.912C577.956 427.912 579.144 427.612 580.2 427.012C581.28 426.388 582.12 425.512 582.72 424.384C583.344 423.256 583.656 421.972 583.656 420.532C583.656 419.092 583.344 417.808 582.72 416.68C582.12 415.552 581.28 414.688 580.2 414.088C579.144 413.464 577.956 413.152 576.636 413.152C575.292 413.152 574.08 413.464 573 414.088C571.944 414.688 571.104 415.552 570.48 416.68C569.88 417.808 569.58 419.092 569.58 420.532C569.58 421.972 569.88 423.256 570.48 424.384C571.104 425.512 571.944 426.388 573 427.012C574.08 427.612 575.292 427.912 576.636 427.912ZM593.294 411.064H595.85V430H593.294V411.064ZM594.59 406.924C594.062 406.924 593.618 406.744 593.258 406.384C592.898 406.024 592.718 405.592 592.718 405.088C592.718 404.608 592.898 404.188 593.258 403.828C593.618 403.468 594.062 403.288 594.59 403.288C595.118 403.288 595.562 403.468 595.922 403.828C596.282 404.164 596.462 404.572 596.462 405.052C596.462 405.58 596.282 406.024 595.922 406.384C595.562 406.744 595.118 406.924 594.59 406.924ZM612.61 410.92C614.986 410.92 616.87 411.616 618.262 413.008C619.678 414.376 620.386 416.38 620.386 419.02V430H617.83V419.272C617.83 417.304 617.338 415.804 616.354 414.772C615.37 413.74 613.966 413.224 612.142 413.224C610.102 413.224 608.482 413.836 607.282 415.06C606.106 416.26 605.518 417.928 605.518 420.064V430H602.962V411.064H605.41V414.556C606.106 413.404 607.066 412.516 608.29 411.892C609.538 411.244 610.978 410.92 612.61 410.92ZM644.928 411.064V427.696C644.928 430.912 644.136 433.288 642.552 434.824C640.992 436.384 638.628 437.164 635.46 437.164C633.708 437.164 632.04 436.9 630.456 436.372C628.896 435.868 627.624 435.16 626.64 434.248L627.936 432.304C628.848 433.12 629.952 433.756 631.248 434.212C632.568 434.668 633.948 434.896 635.388 434.896C637.788 434.896 639.552 434.332 640.68 433.204C641.808 432.1 642.372 430.372 642.372 428.02V425.608C641.58 426.808 640.536 427.72 639.24 428.344C637.968 428.968 636.552 429.28 634.992 429.28C633.216 429.28 631.596 428.896 630.132 428.128C628.692 427.336 627.552 426.244 626.712 424.852C625.896 423.436 625.488 421.84 625.488 420.064C625.488 418.288 625.896 416.704 626.712 415.312C627.552 413.92 628.692 412.84 630.132 412.072C631.572 411.304 633.192 410.92 634.992 410.92C636.6 410.92 638.052 411.244 639.348 411.892C640.644 412.54 641.688 413.476 642.48 414.7V411.064H644.928ZM635.244 427.012C636.612 427.012 637.848 426.724 638.952 426.148C640.056 425.548 640.908 424.72 641.508 423.664C642.132 422.608 642.444 421.408 642.444 420.064C642.444 418.72 642.132 417.532 641.508 416.5C640.908 415.444 640.056 414.628 638.952 414.052C637.872 413.452 636.636 413.152 635.244 413.152C633.876 413.152 632.64 413.44 631.536 414.016C630.456 414.592 629.604 415.408 628.98 416.464C628.38 417.52 628.08 418.72 628.08 420.064C628.08 421.408 628.38 422.608 628.98 423.664C629.604 424.72 630.456 425.548 631.536 426.148C632.64 426.724 633.876 427.012 635.244 427.012ZM685.114 410.92C687.49 410.92 689.35 411.604 690.694 412.972C692.062 414.34 692.746 416.356 692.746 419.02V430H690.19V419.272C690.19 417.304 689.71 415.804 688.75 414.772C687.814 413.74 686.482 413.224 684.754 413.224C682.786 413.224 681.238 413.836 680.11 415.06C678.982 416.26 678.418 417.928 678.418 420.064V430H675.862V419.272C675.862 417.304 675.382 415.804 674.422 414.772C673.486 413.74 672.142 413.224 670.39 413.224C668.446 413.224 666.898 413.836 665.746 415.06C664.618 416.26 664.054 417.928 664.054 420.064V430H661.498V411.064H663.946V414.52C664.618 413.368 665.554 412.48 666.754 411.856C667.954 411.232 669.334 410.92 670.894 410.92C672.478 410.92 673.846 411.256 674.998 411.928C676.174 412.6 677.05 413.596 677.626 414.916C678.322 413.668 679.318 412.696 680.614 412C681.934 411.28 683.434 410.92 685.114 410.92ZM707.488 430.18C705.664 430.18 704.02 429.772 702.556 428.956C701.092 428.116 699.94 426.964 699.1 425.5C698.26 424.036 697.84 422.38 697.84 420.532C697.84 418.684 698.26 417.028 699.1 415.564C699.94 414.1 701.092 412.96 702.556 412.144C704.02 411.328 705.664 410.92 707.488 410.92C709.312 410.92 710.956 411.328 712.42 412.144C713.884 412.96 715.024 414.1 715.84 415.564C716.68 417.028 717.1 418.684 717.1 420.532C717.1 422.38 716.68 424.036 715.84 425.5C715.024 426.964 713.884 428.116 712.42 428.956C710.956 429.772 709.312 430.18 707.488 430.18ZM707.488 427.912C708.832 427.912 710.032 427.612 711.088 427.012C712.168 426.388 713.008 425.512 713.608 424.384C714.208 423.256 714.508 421.972 714.508 420.532C714.508 419.092 714.208 417.808 713.608 416.68C713.008 415.552 712.168 414.688 711.088 414.088C710.032 413.464 708.832 413.152 707.488 413.152C706.144 413.152 704.932 413.464 703.852 414.088C702.796 414.688 701.956 415.552 701.332 416.68C700.732 417.808 700.432 419.092 700.432 420.532C700.432 421.972 700.732 423.256 701.332 424.384C701.956 425.512 702.796 426.388 703.852 427.012C704.932 427.612 706.144 427.912 707.488 427.912ZM737.703 411.064L729.279 430H726.651L718.263 411.064H720.927L728.019 427.192L735.183 411.064H737.703ZM741.302 411.064H743.858V430H741.302V411.064ZM742.598 406.924C742.07 406.924 741.626 406.744 741.266 406.384C740.906 406.024 740.726 405.592 740.726 405.088C740.726 404.608 740.906 404.188 741.266 403.828C741.626 403.468 742.07 403.288 742.598 403.288C743.126 403.288 743.57 403.468 743.93 403.828C744.29 404.164 744.47 404.572 744.47 405.052C744.47 405.58 744.29 406.024 743.93 406.384C743.57 406.744 743.126 406.924 742.598 406.924ZM767.458 421.324H751.618C751.762 423.292 752.518 424.888 753.886 426.112C755.254 427.312 756.982 427.912 759.07 427.912C760.246 427.912 761.326 427.708 762.31 427.3C763.294 426.868 764.146 426.244 764.866 425.428L766.306 427.084C765.466 428.092 764.41 428.86 763.138 429.388C761.89 429.916 760.51 430.18 758.998 430.18C757.054 430.18 755.326 429.772 753.814 428.956C752.326 428.116 751.162 426.964 750.322 425.5C749.482 424.036 749.062 422.38 749.062 420.532C749.062 418.684 749.458 417.028 750.25 415.564C751.066 414.1 752.17 412.96 753.562 412.144C754.978 411.328 756.562 410.92 758.314 410.92C760.066 410.92 761.638 411.328 763.03 412.144C764.422 412.96 765.514 414.1 766.306 415.564C767.098 417.004 767.494 418.66 767.494 420.532L767.458 421.324ZM758.314 413.116C756.49 413.116 754.954 413.704 753.706 414.88C752.482 416.032 751.786 417.544 751.618 419.416H765.046C764.878 417.544 764.17 416.032 762.922 414.88C761.698 413.704 760.162 413.116 758.314 413.116ZM777.773 430.18C776.237 430.18 774.761 429.964 773.345 429.532C771.953 429.076 770.861 428.512 770.069 427.84L771.221 425.824C772.013 426.448 773.009 426.964 774.209 427.372C775.409 427.756 776.657 427.948 777.953 427.948C779.681 427.948 780.953 427.684 781.769 427.156C782.609 426.604 783.029 425.836 783.029 424.852C783.029 424.156 782.801 423.616 782.345 423.232C781.889 422.824 781.313 422.524 780.617 422.332C779.921 422.116 778.997 421.912 777.845 421.72C776.309 421.432 775.073 421.144 774.137 420.856C773.201 420.544 772.397 420.028 771.725 419.308C771.077 418.588 770.753 417.592 770.753 416.32C770.753 414.736 771.413 413.44 772.733 412.432C774.053 411.424 775.889 410.92 778.241 410.92C779.465 410.92 780.689 411.088 781.913 411.424C783.137 411.736 784.145 412.156 784.937 412.684L783.821 414.736C782.261 413.656 780.401 413.116 778.241 413.116C776.609 413.116 775.373 413.404 774.533 413.98C773.717 414.556 773.309 415.312 773.309 416.248C773.309 416.968 773.537 417.544 773.993 417.976C774.473 418.408 775.061 418.732 775.757 418.948C776.453 419.14 777.413 419.344 778.637 419.56C780.149 419.848 781.361 420.136 782.273 420.424C783.185 420.712 783.965 421.204 784.613 421.9C785.261 422.596 785.585 423.556 785.585 424.78C785.585 426.436 784.889 427.756 783.497 428.74C782.129 429.7 780.221 430.18 777.773 430.18ZM790.598 426.256C791.15 426.256 791.606 426.448 791.966 426.832C792.326 427.192 792.506 427.648 792.506 428.2C792.506 428.488 792.458 428.8 792.362 429.136C792.29 429.472 792.17 429.856 792.002 430.288L790.49 435.256H788.762L789.986 430.036C789.602 429.916 789.29 429.7 789.05 429.388C788.81 429.052 788.69 428.656 788.69 428.2C788.69 427.648 788.87 427.192 789.23 426.832C789.59 426.448 790.046 426.256 790.598 426.256ZM817.333 428.848C816.853 429.28 816.253 429.616 815.533 429.856C814.837 430.072 814.105 430.18 813.337 430.18C811.561 430.18 810.193 429.7 809.233 428.74C808.273 427.78 807.793 426.424 807.793 424.672V413.224H804.409V411.064H807.793V406.924H810.349V411.064H816.109V413.224H810.349V424.528C810.349 425.656 810.625 426.52 811.177 427.12C811.753 427.696 812.569 427.984 813.625 427.984C814.153 427.984 814.657 427.9 815.137 427.732C815.641 427.564 816.073 427.324 816.433 427.012L817.333 428.848ZM837.546 411.064L829.122 430H826.494L818.106 411.064H820.77L827.862 427.192L835.026 411.064H837.546ZM855.644 430.18C854.108 430.18 852.632 429.964 851.216 429.532C849.824 429.076 848.732 428.512 847.94 427.84L849.092 425.824C849.884 426.448 850.88 426.964 852.08 427.372C853.28 427.756 854.528 427.948 855.824 427.948C857.552 427.948 858.824 427.684 859.64 427.156C860.48 426.604 860.9 425.836 860.9 424.852C860.9 424.156 860.672 423.616 860.216 423.232C859.76 422.824 859.184 422.524 858.488 422.332C857.792 422.116 856.868 421.912 855.716 421.72C854.18 421.432 852.944 421.144 852.008 420.856C851.072 420.544 850.268 420.028 849.596 419.308C848.948 418.588 848.624 417.592 848.624 416.32C848.624 414.736 849.284 413.44 850.604 412.432C851.924 411.424 853.76 410.92 856.112 410.92C857.336 410.92 858.56 411.088 859.784 411.424C861.008 411.736 862.016 412.156 862.808 412.684L861.692 414.736C860.132 413.656 858.272 413.116 856.112 413.116C854.48 413.116 853.244 413.404 852.404 413.98C851.588 414.556 851.18 415.312 851.18 416.248C851.18 416.968 851.408 417.544 851.864 417.976C852.344 418.408 852.932 418.732 853.628 418.948C854.324 419.14 855.284 419.344 856.508 419.56C858.02 419.848 859.232 420.136 860.144 420.424C861.056 420.712 861.836 421.204 862.484 421.9C863.132 422.596 863.456 423.556 863.456 424.78C863.456 426.436 862.76 427.756 861.368 428.74C860 429.7 858.092 430.18 855.644 430.18ZM877.829 410.92C880.205 410.92 882.089 411.616 883.481 413.008C884.897 414.376 885.605 416.38 885.605 419.02V430H883.049V419.272C883.049 417.304 882.557 415.804 881.573 414.772C880.589 413.74 879.185 413.224 877.361 413.224C875.321 413.224 873.701 413.836 872.501 415.06C871.325 416.26 870.737 417.928 870.737 420.064V430H868.181V403.288H870.737V414.376C871.433 413.272 872.393 412.42 873.617 411.82C874.841 411.22 876.245 410.92 877.829 410.92ZM900.355 430.18C898.531 430.18 896.887 429.772 895.423 428.956C893.959 428.116 892.807 426.964 891.967 425.5C891.127 424.036 890.707 422.38 890.707 420.532C890.707 418.684 891.127 417.028 891.967 415.564C892.807 414.1 893.959 412.96 895.423 412.144C896.887 411.328 898.531 410.92 900.355 410.92C902.179 410.92 903.823 411.328 905.287 412.144C906.751 412.96 907.891 414.1 908.707 415.564C909.547 417.028 909.967 418.684 909.967 420.532C909.967 422.38 909.547 424.036 908.707 425.5C907.891 426.964 906.751 428.116 905.287 428.956C903.823 429.772 902.179 430.18 900.355 430.18ZM900.355 427.912C901.699 427.912 902.899 427.612 903.955 427.012C905.035 426.388 905.875 425.512 906.475 424.384C907.075 423.256 907.375 421.972 907.375 420.532C907.375 419.092 907.075 417.808 906.475 416.68C905.875 415.552 905.035 414.688 903.955 414.088C902.899 413.464 901.699 413.152 900.355 413.152C899.011 413.152 897.799 413.464 896.719 414.088C895.663 414.688 894.823 415.552 894.199 416.68C893.599 417.808 893.299 419.092 893.299 420.532C893.299 421.972 893.599 423.256 894.199 424.384C894.823 425.512 895.663 426.388 896.719 427.012C897.799 427.612 899.011 427.912 900.355 427.912ZM942.45 411.064L935.286 430H932.874L926.898 414.484L920.922 430H918.51L911.382 411.064H913.83L919.77 427.156L925.854 411.064H928.05L934.098 427.156L940.11 411.064H942.45ZM951.163 430.18C949.627 430.18 948.151 429.964 946.735 429.532C945.343 429.076 944.251 428.512 943.459 427.84L944.611 425.824C945.403 426.448 946.399 426.964 947.599 427.372C948.799 427.756 950.047 427.948 951.343 427.948C953.071 427.948 954.343 427.684 955.159 427.156C955.999 426.604 956.419 425.836 956.419 424.852C956.419 424.156 956.191 423.616 955.735 423.232C955.279 422.824 954.703 422.524 954.007 422.332C953.311 422.116 952.387 421.912 951.235 421.72C949.699 421.432 948.463 421.144 947.527 420.856C946.591 420.544 945.787 420.028 945.115 419.308C944.467 418.588 944.143 417.592 944.143 416.32C944.143 414.736 944.803 413.44 946.123 412.432C947.443 411.424 949.279 410.92 951.631 410.92C952.855 410.92 954.079 411.088 955.303 411.424C956.527 411.736 957.535 412.156 958.327 412.684L957.211 414.736C955.651 413.656 953.791 413.116 951.631 413.116C949.999 413.116 948.763 413.404 947.923 413.98C947.107 414.556 946.699 415.312 946.699 416.248C946.699 416.968 946.927 417.544 947.383 417.976C947.863 418.408 948.451 418.732 949.147 418.948C949.843 419.14 950.803 419.344 952.027 419.56C953.539 419.848 954.751 420.136 955.663 420.424C956.575 420.712 957.355 421.204 958.003 421.9C958.651 422.596 958.975 423.556 958.975 424.78C958.975 426.436 958.279 427.756 956.887 428.74C955.519 429.7 953.611 430.18 951.163 430.18ZM963.989 426.256C964.541 426.256 964.997 426.448 965.357 426.832C965.717 427.192 965.897 427.648 965.897 428.2C965.897 428.488 965.849 428.8 965.753 429.136C965.681 429.472 965.561 429.856 965.393 430.288L963.881 435.256H962.153L963.377 430.036C962.993 429.916 962.681 429.7 962.441 429.388C962.201 429.052 962.081 428.656 962.081 428.2C962.081 427.648 962.261 427.192 962.621 426.832C962.981 426.448 963.437 426.256 963.989 426.256ZM495.188 454.92C497.66 454.92 499.556 455.544 500.876 456.792C502.196 458.016 502.856 459.84 502.856 462.264V474H500.408V471.048C499.832 472.032 498.98 472.8 497.852 473.352C496.748 473.904 495.428 474.18 493.892 474.18C491.78 474.18 490.1 473.676 488.852 472.668C487.604 471.66 486.98 470.328 486.98 468.672C486.98 467.064 487.556 465.768 488.708 464.784C489.884 463.8 491.744 463.308 494.288 463.308H500.3V462.156C500.3 460.524 499.844 459.288 498.932 458.448C498.02 457.584 496.688 457.152 494.936 457.152C493.736 457.152 492.584 457.356 491.48 457.764C490.376 458.148 489.428 458.688 488.636 459.384L487.484 457.476C488.444 456.66 489.596 456.036 490.94 455.604C492.284 455.148 493.7 454.92 495.188 454.92ZM494.288 472.164C495.728 472.164 496.964 471.84 497.996 471.192C499.028 470.52 499.796 469.56 500.3 468.312V465.216H494.36C491.12 465.216 489.5 466.344 489.5 468.6C489.5 469.704 489.92 470.58 490.76 471.228C491.6 471.852 492.776 472.164 494.288 472.164ZM519.446 454.92C521.822 454.92 523.706 455.616 525.098 457.008C526.514 458.376 527.222 460.38 527.222 463.02V474H524.666V463.272C524.666 461.304 524.174 459.804 523.19 458.772C522.206 457.74 520.802 457.224 518.978 457.224C516.938 457.224 515.318 457.836 514.118 459.06C512.942 460.26 512.354 461.928 512.354 464.064V474H509.798V455.064H512.246V458.556C512.942 457.404 513.902 456.516 515.126 455.892C516.374 455.244 517.814 454.92 519.446 454.92ZM551.512 447.288V474H549.064V470.256C548.296 471.528 547.276 472.5 546.004 473.172C544.756 473.844 543.34 474.18 541.756 474.18C539.98 474.18 538.372 473.772 536.932 472.956C535.492 472.14 534.364 471 533.548 469.536C532.732 468.072 532.324 466.404 532.324 464.532C532.324 462.66 532.732 460.992 533.548 459.528C534.364 458.064 535.492 456.936 536.932 456.144C538.372 455.328 539.98 454.92 541.756 454.92C543.292 454.92 544.672 455.244 545.896 455.892C547.144 456.516 548.164 457.44 548.956 458.664V447.288H551.512ZM541.972 471.912C543.292 471.912 544.48 471.612 545.536 471.012C546.616 470.388 547.456 469.512 548.056 468.384C548.68 467.256 548.992 465.972 548.992 464.532C548.992 463.092 548.68 461.808 548.056 460.68C547.456 459.552 546.616 458.688 545.536 458.088C544.48 457.464 543.292 457.152 541.972 457.152C540.628 457.152 539.416 457.464 538.336 458.088C537.28 458.688 536.44 459.552 535.816 460.68C535.216 461.808 534.916 463.092 534.916 464.532C534.916 465.972 535.216 467.256 535.816 468.384C536.44 469.512 537.28 470.388 538.336 471.012C539.416 471.612 540.628 471.912 541.972 471.912ZM574.676 454.92C577.148 454.92 579.044 455.544 580.364 456.792C581.684 458.016 582.344 459.84 582.344 462.264V474H579.896V471.048C579.32 472.032 578.468 472.8 577.34 473.352C576.236 473.904 574.916 474.18 573.38 474.18C571.268 474.18 569.588 473.676 568.34 472.668C567.092 471.66 566.468 470.328 566.468 468.672C566.468 467.064 567.044 465.768 568.196 464.784C569.372 463.8 571.232 463.308 573.776 463.308H579.788V462.156C579.788 460.524 579.332 459.288 578.42 458.448C577.508 457.584 576.176 457.152 574.424 457.152C573.224 457.152 572.072 457.356 570.968 457.764C569.864 458.148 568.916 458.688 568.124 459.384L566.972 457.476C567.932 456.66 569.084 456.036 570.428 455.604C571.772 455.148 573.188 454.92 574.676 454.92ZM573.776 472.164C575.216 472.164 576.452 471.84 577.484 471.192C578.516 470.52 579.284 469.56 579.788 468.312V465.216H573.848C570.608 465.216 568.988 466.344 568.988 468.6C568.988 469.704 569.408 470.58 570.248 471.228C571.088 471.852 572.264 472.164 573.776 472.164ZM597.205 474.18C595.333 474.18 593.653 473.772 592.165 472.956C590.701 472.14 589.549 471 588.709 469.536C587.869 468.048 587.449 466.38 587.449 464.532C587.449 462.684 587.869 461.028 588.709 459.564C589.549 458.1 590.701 456.96 592.165 456.144C593.653 455.328 595.333 454.92 597.205 454.92C598.837 454.92 600.289 455.244 601.561 455.892C602.857 456.516 603.877 457.44 604.621 458.664L602.713 459.96C602.089 459.024 601.297 458.328 600.337 457.872C599.377 457.392 598.333 457.152 597.205 457.152C595.837 457.152 594.601 457.464 593.497 458.088C592.417 458.688 591.565 459.552 590.941 460.68C590.341 461.808 590.041 463.092 590.041 464.532C590.041 465.996 590.341 467.292 590.941 468.42C591.565 469.524 592.417 470.388 593.497 471.012C594.601 471.612 595.837 471.912 597.205 471.912C598.333 471.912 599.377 471.684 600.337 471.228C601.297 470.772 602.089 470.076 602.713 469.14L604.621 470.436C603.877 471.66 602.857 472.596 601.561 473.244C600.265 473.868 598.813 474.18 597.205 474.18ZM619.825 472.848C619.345 473.28 618.745 473.616 618.025 473.856C617.329 474.072 616.597 474.18 615.829 474.18C614.053 474.18 612.685 473.7 611.725 472.74C610.765 471.78 610.285 470.424 610.285 468.672V457.224H606.901V455.064H610.285V450.924H612.841V455.064H618.601V457.224H612.841V468.528C612.841 469.656 613.117 470.52 613.669 471.12C614.245 471.696 615.061 471.984 616.117 471.984C616.645 471.984 617.149 471.9 617.629 471.732C618.133 471.564 618.565 471.324 618.925 471.012L619.825 472.848ZM631.55 474.18C629.726 474.18 628.082 473.772 626.618 472.956C625.154 472.116 624.002 470.964 623.162 469.5C622.322 468.036 621.902 466.38 621.902 464.532C621.902 462.684 622.322 461.028 623.162 459.564C624.002 458.1 625.154 456.96 626.618 456.144C628.082 455.328 629.726 454.92 631.55 454.92C633.374 454.92 635.018 455.328 636.482 456.144C637.946 456.96 639.086 458.1 639.902 459.564C640.742 461.028 641.162 462.684 641.162 464.532C641.162 466.38 640.742 468.036 639.902 469.5C639.086 470.964 637.946 472.116 636.482 472.956C635.018 473.772 633.374 474.18 631.55 474.18ZM631.55 471.912C632.894 471.912 634.094 471.612 635.15 471.012C636.23 470.388 637.07 469.512 637.67 468.384C638.27 467.256 638.57 465.972 638.57 464.532C638.57 463.092 638.27 461.808 637.67 460.68C637.07 459.552 636.23 458.688 635.15 458.088C634.094 457.464 632.894 457.152 631.55 457.152C630.206 457.152 628.994 457.464 627.914 458.088C626.858 458.688 626.018 459.552 625.394 460.68C624.794 461.808 624.494 463.092 624.494 464.532C624.494 465.972 624.794 467.256 625.394 468.384C626.018 469.512 626.858 470.388 627.914 471.012C628.994 471.612 630.206 471.912 631.55 471.912ZM648.828 458.772C649.428 457.5 650.316 456.54 651.492 455.892C652.692 455.244 654.168 454.92 655.92 454.92V457.404L655.308 457.368C653.316 457.368 651.756 457.98 650.628 459.204C649.5 460.428 648.936 462.144 648.936 464.352V474H646.38V455.064H648.828V458.772ZM665.765 474.18C664.229 474.18 662.753 473.964 661.337 473.532C659.945 473.076 658.853 472.512 658.061 471.84L659.213 469.824C660.005 470.448 661.001 470.964 662.201 471.372C663.401 471.756 664.649 471.948 665.945 471.948C667.673 471.948 668.945 471.684 669.761 471.156C670.601 470.604 671.021 469.836 671.021 468.852C671.021 468.156 670.793 467.616 670.337 467.232C669.881 466.824 669.305 466.524 668.609 466.332C667.913 466.116 666.989 465.912 665.837 465.72C664.301 465.432 663.065 465.144 662.129 464.856C661.193 464.544 660.389 464.028 659.717 463.308C659.069 462.588 658.745 461.592 658.745 460.32C658.745 458.736 659.405 457.44 660.725 456.432C662.045 455.424 663.881 454.92 666.233 454.92C667.457 454.92 668.681 455.088 669.905 455.424C671.129 455.736 672.137 456.156 672.929 456.684L671.813 458.736C670.253 457.656 668.393 457.116 666.233 457.116C664.601 457.116 663.365 457.404 662.525 457.98C661.709 458.556 661.301 459.312 661.301 460.248C661.301 460.968 661.529 461.544 661.985 461.976C662.465 462.408 663.053 462.732 663.749 462.948C664.445 463.14 665.405 463.344 666.629 463.56C668.141 463.848 669.353 464.136 670.265 464.424C671.177 464.712 671.957 465.204 672.605 465.9C673.253 466.596 673.577 467.556 673.577 468.78C673.577 470.436 672.881 471.756 671.489 472.74C670.121 473.7 668.213 474.18 665.765 474.18ZM678.554 474.18C678.026 474.18 677.57 473.988 677.186 473.604C676.826 473.22 676.646 472.752 676.646 472.2C676.646 471.648 676.826 471.192 677.186 470.832C677.57 470.448 678.026 470.256 678.554 470.256C679.082 470.256 679.538 470.448 679.922 470.832C680.306 471.192 680.498 471.648 680.498 472.2C680.498 472.752 680.306 473.22 679.922 473.604C679.538 473.988 679.082 474.18 678.554 474.18Z" fill="white" fill-opacity="0.75"/>
<g clip-path="url(#clip1)">
<path d="M411.176 416.589H-228.896C-236.926 416.589 -243.443 423.106 -243.443 431.136V780.266C-243.443 820.357 -210.828 853 -170.708 853H352.986C393.107 853 425.721 820.357 425.721 780.266V431.136C425.722 423.105 419.206 416.589 411.176 416.589ZM396.628 780.264C396.628 804.326 377.049 823.905 352.987 823.905H-170.707C-194.768 823.905 -214.348 804.326 -214.348 780.264V445.682H396.628V780.264Z" fill="white"/>
<path d="M425.25 281.969L400.491 188.024C394.789 165.185 371.456 150.842 348.326 156.079L-237.805 295.148C-249.327 297.767 -259.074 304.778 -265.271 314.845C-271.468 324.911 -273.301 336.782 -270.392 348.303L-242.985 456.649C-241.355 463.224 -235.42 467.618 -228.904 467.618C-227.741 467.618 -226.547 467.502 -225.297 467.182C-217.529 465.233 -212.815 457.319 -214.794 449.522L-216.394 443.209L414.396 299.891C418.236 298.99 421.582 296.603 423.619 293.229C425.687 289.854 426.239 285.78 425.25 281.969ZM-223.52 414.987L-242.198 341.233C-243.158 337.393 -242.519 333.437 -240.481 330.061C-238.415 326.716 -235.157 324.388 -231.201 323.456L354.929 184.417C355.977 184.155 357.053 184.039 358.1 184.039C364.618 184.039 370.64 188.519 372.298 195.24L393.275 274.813L-223.52 414.987Z" fill="white"/>
<path d="M39.4401 418.101C32.2543 414.581 23.526 417.431 19.9174 424.618L-38.2713 540.995C-41.8499 548.18 -38.9409 556.909 -31.7538 560.517C-29.6304 561.565 -27.4183 562.06 -25.2362 562.06C-19.912 562.06 -14.7623 559.121 -12.2311 554.001L45.9576 437.625C49.5348 430.436 46.6259 421.708 39.4401 418.101Z" fill="white"/>
<path d="M184.91 418.101C177.753 414.581 169.024 417.431 165.387 424.618L107.198 540.995C103.62 548.18 106.529 556.909 113.716 560.517C115.839 561.565 118.051 562.06 120.233 562.06C125.558 562.06 130.707 559.121 133.239 554.001L191.427 437.625C195.006 430.436 192.095 421.708 184.91 418.101Z" fill="white"/>
<path d="M330.38 418.101C323.164 414.581 314.495 417.431 310.857 424.618L252.669 540.995C249.09 548.18 251.999 556.909 259.186 560.517C261.31 561.565 263.522 562.06 265.704 562.06C271.028 562.06 276.178 559.121 278.709 554.001L336.898 437.625C340.475 430.436 337.566 421.708 330.38 418.101Z" fill="white"/>
<path d="M411.176 532.964H-228.896C-236.926 532.964 -243.443 539.481 -243.443 547.511C-243.443 555.541 -236.926 562.059 -228.896 562.059H411.176C419.235 562.059 425.724 555.541 425.724 547.511C425.724 539.481 419.206 532.964 411.176 532.964Z" fill="white"/>
<path d="M54.1018 358.865L-46.1843 258.664C-51.8576 252.991 -61.0809 252.991 -66.7543 258.664C-72.4276 264.338 -72.4276 273.561 -66.7543 279.234L33.5045 379.435C36.3562 382.256 40.0794 383.683 43.8039 383.683C47.5284 383.683 51.2515 382.258 54.1032 379.435C59.7766 373.761 59.7766 364.538 54.1018 358.865Z" fill="white"/>
<path d="M196.316 326.541L96.203 226.312C90.5296 220.639 81.3063 220.639 75.6329 226.312C69.9596 231.986 69.9596 241.209 75.6329 246.882L175.746 347.111C178.598 349.933 182.321 351.359 186.045 351.359C189.77 351.359 193.493 349.963 196.316 347.111C201.989 341.438 201.989 332.215 196.316 326.541Z" fill="white"/>
<path d="M338.469 294.248L238.326 194.019C232.653 188.345 223.43 188.345 217.756 194.019C212.083 199.692 212.083 208.915 217.756 214.589L317.898 314.818C320.75 317.639 324.473 319.066 328.197 319.066C331.922 319.066 335.645 317.641 338.468 314.818C344.143 309.144 344.143 299.921 338.469 294.248Z" fill="white"/>
</g>
</g>
<defs>
<linearGradient id="paint0_linear" x1="0" y1="0" x2="1188" y2="726" gradientUnits="userSpaceOnUse">
<stop stop-color="#2C2C2C"/>
<stop offset="1" stop-color="#424242"/>
</linearGradient>
<clipPath id="clip0">
<rect width="1188" height="726" fill="white"/>
</clipPath>
<clipPath id="clip1">
<rect width="698" height="698" fill="white" transform="translate(-272 155)"/>
</clipPath>
</defs>
</svg>
