<svg width="1188" height="726" viewBox="0 0 1188 726" fill="none" xmlns="http://www.w3.org/2000/svg">
<g clip-path="url(#clip0)">
<rect width="1188" height="726" fill="url(#paint0_linear)"/>
<path opacity="0.1" d="M376.19 633.908C380.668 646.953 383.625 660.706 383.625 675.25C383.625 746.012 326.069 803.583 255.292 803.583H-161.792C-178.549 803.583 -194.08 798.897 -207.815 791.338C-198.638 834.919 -159.938 867.75 -113.667 867.75H303.416C374.194 867.75 431.75 810.179 431.75 739.418C431.75 695.687 409.691 657.089 376.19 633.908Z" fill="black"/>
<path d="M511.958 482.75H463.021C459.7 446.127 445.199 412.703 422.887 385.956L457.536 351.331C463.803 345.081 463.803 334.913 457.536 328.648C451.269 322.381 441.118 322.381 434.853 328.648L400.203 363.275C373.454 340.968 340.034 326.469 303.419 323.148V274.211C303.419 265.344 296.244 258.169 287.377 258.169C278.509 258.169 271.334 265.344 271.334 274.211V323.833C235.149 327.216 201.797 341.308 175.044 363.77L139.9 328.65C133.634 322.383 123.482 322.383 117.217 328.65C110.95 334.916 110.95 345.083 117.217 351.333L152.39 386.481C135.503 406.872 123.564 431.296 117.163 458.091C99.5552 453.62 81.4436 450.669 62.7952 450.669C-52.8026 450.669 -148.431 538.335 -160.057 652.174C-207.9 670.841 -242 717.137 -242 771.5C-242 842.262 -184.444 899.833 -113.667 899.833H303.416C391.865 899.833 463.833 827.865 463.833 739.416C463.833 693.114 443.814 651.665 412.33 622.356C441.429 593.154 459.169 555.311 462.924 514.833H511.958C520.825 514.833 528 507.658 528 498.791C528 489.924 520.825 482.75 511.958 482.75Z" fill="#303C42"/>
<path d="M431.75 739.417C431.75 810.179 374.194 867.75 303.417 867.75H-113.667C-166.743 867.75 -209.917 824.576 -209.917 771.5C-209.917 718.424 -166.743 675.25 -113.667 675.25C-104.8 675.25 -97.6251 668.075 -97.6251 659.208C-97.6251 650.341 -104.8 643.166 -113.667 643.166C-118.209 643.166 -122.509 644.045 -126.93 644.507C-112.184 552.318 -32.524 482.75 62.7921 482.75C137.312 482.75 204.872 526.957 236.329 593.794C228.589 597.364 221.062 601.444 213.905 606.258C206.573 611.209 204.598 621.173 209.549 628.536C214.532 635.882 224.495 637.779 231.827 632.891C253.006 618.619 277.791 611.084 303.419 611.084C374.194 611.083 431.75 668.655 431.75 739.417Z" fill="#64B5F6"/>
<path opacity="0.1" d="M376.19 633.908C380.668 646.953 383.625 660.706 383.625 675.25C383.625 746.012 326.069 803.583 255.292 803.583H-161.792C-178.549 803.583 -194.08 798.897 -207.815 791.338C-198.638 834.919 -159.938 867.75 -113.667 867.75H303.416C374.194 867.75 431.75 810.179 431.75 739.418C431.75 695.687 409.691 657.089 376.19 633.908Z" fill="black"/>
<path d="M386.255 602.745C361.994 587.983 333.829 579 303.417 579C290.972 579 278.804 580.841 266.889 583.623C243.032 530.649 199.918 489.842 147.644 468.21C161.939 402.685 219.695 354.417 287.377 354.417C366.99 354.417 431.752 419.18 431.752 498.792C431.75 538.155 415.215 575.374 386.255 602.745Z" fill="#FFCA28"/>
<path d="M511.958 482.75H463.021C459.7 446.127 445.199 412.703 422.887 385.956L457.536 351.331C463.803 345.081 463.803 334.913 457.536 328.648C451.269 322.381 441.118 322.381 434.853 328.648L400.203 363.275C373.454 340.968 340.034 326.469 303.419 323.148V274.211C303.419 265.344 296.244 258.169 287.377 258.169C278.509 258.169 271.334 265.344 271.334 274.211V323.833C235.149 327.216 201.797 341.308 175.044 363.77L139.9 328.65C133.634 322.383 123.482 322.383 117.217 328.65C110.95 334.916 110.95 345.083 117.217 351.333L152.39 386.481C135.503 406.872 123.564 431.296 117.163 458.091C99.5552 453.62 81.4436 450.669 62.7952 450.669C-52.8026 450.669 -148.431 538.335 -160.057 652.174C-207.9 670.841 -242 717.137 -242 771.5C-242 842.262 -184.444 899.833 -113.667 899.833H303.416C391.865 899.833 463.833 827.865 463.833 739.416C463.833 693.114 443.814 651.665 412.33 622.356C441.429 593.154 459.169 555.311 462.924 514.833H511.958C520.825 514.833 528 507.658 528 498.791C528 489.924 520.825 482.75 511.958 482.75Z" fill="url(#paint1_linear)"/>
<g filter="url(#filter0_d)">
<path d="M610.704 316.32L594.096 384H570.96L561.648 342.528L552.144 384H529.008L512.592 316.32H532.944L540.816 362.592L551.472 316.32H572.112L582.48 362.208L590.352 316.32H610.704ZM670.145 356.448C670.145 357.92 670.049 359.392 669.857 360.864H634.241C634.433 363.808 635.233 366.016 636.641 367.488C638.113 368.896 639.969 369.6 642.209 369.6C645.345 369.6 647.585 368.192 648.929 365.376H668.993C668.161 369.088 666.529 372.416 664.097 375.36C661.729 378.24 658.721 380.512 655.073 382.176C651.425 383.84 647.393 384.672 642.977 384.672C637.665 384.672 632.929 383.552 628.769 381.312C624.673 379.072 621.441 375.872 619.073 371.712C616.769 367.552 615.617 362.656 615.617 357.024C615.617 351.392 616.769 346.528 619.073 342.432C621.377 338.272 624.577 335.072 628.673 332.832C632.833 330.592 637.601 329.472 642.977 329.472C648.289 329.472 652.993 330.56 657.089 332.736C661.185 334.912 664.385 338.048 666.689 342.144C668.993 346.176 670.145 350.944 670.145 356.448ZM650.945 351.744C650.945 349.44 650.177 347.648 648.641 346.368C647.105 345.024 645.185 344.352 642.881 344.352C640.577 344.352 638.689 344.992 637.217 346.272C635.745 347.488 634.785 349.312 634.337 351.744H650.945ZM674.773 357.024C674.773 351.456 675.765 346.592 677.749 342.432C679.797 338.272 682.549 335.072 686.005 332.832C689.525 330.592 693.429 329.472 697.717 329.472C701.429 329.472 704.629 330.208 707.317 331.68C710.005 333.152 712.085 335.136 713.557 337.632V330.144H732.373V384H713.557V376.512C712.085 379.008 709.973 380.992 707.221 382.464C704.533 383.936 701.365 384.672 697.717 384.672C693.429 384.672 689.525 383.552 686.005 381.312C682.549 379.072 679.797 375.872 677.749 371.712C675.765 367.488 674.773 362.592 674.773 357.024ZM713.557 357.024C713.557 353.568 712.597 350.848 710.677 348.864C708.821 346.88 706.517 345.888 703.765 345.888C700.949 345.888 698.613 346.88 696.757 348.864C694.901 350.784 693.973 353.504 693.973 357.024C693.973 360.48 694.901 363.232 696.757 365.28C698.613 367.264 700.949 368.256 703.765 368.256C706.517 368.256 708.821 367.264 710.677 365.28C712.597 363.296 713.557 360.544 713.557 357.024ZM774.871 367.968V384H766.711C752.951 384 746.071 377.184 746.071 363.552V345.792H739.447V330.144H746.071V317.088H764.983V330.144H774.775V345.792H764.983V363.84C764.983 365.312 765.303 366.368 765.943 367.008C766.647 367.648 767.799 367.968 769.399 367.968H774.871ZM818.925 329.664C825.069 329.664 829.933 331.744 833.517 335.904C837.165 340 838.989 345.568 838.989 352.608V384H820.173V355.104C820.173 352.032 819.373 349.632 817.773 347.904C816.173 346.112 814.029 345.216 811.341 345.216C808.525 345.216 806.317 346.112 804.717 347.904C803.117 349.632 802.317 352.032 802.317 355.104V384H783.501V312.96H802.317V337.824C803.981 335.392 806.221 333.44 809.037 331.968C811.917 330.432 815.213 329.664 818.925 329.664ZM900.77 356.448C900.77 357.92 900.674 359.392 900.482 360.864H864.866C865.058 363.808 865.858 366.016 867.266 367.488C868.738 368.896 870.594 369.6 872.834 369.6C875.97 369.6 878.21 368.192 879.554 365.376H899.618C898.786 369.088 897.154 372.416 894.722 375.36C892.354 378.24 889.346 380.512 885.698 382.176C882.05 383.84 878.018 384.672 873.602 384.672C868.29 384.672 863.554 383.552 859.394 381.312C855.298 379.072 852.066 375.872 849.698 371.712C847.394 367.552 846.242 362.656 846.242 357.024C846.242 351.392 847.394 346.528 849.698 342.432C852.002 338.272 855.202 335.072 859.298 332.832C863.458 330.592 868.226 329.472 873.602 329.472C878.914 329.472 883.618 330.56 887.714 332.736C891.81 334.912 895.01 338.048 897.314 342.144C899.618 346.176 900.77 350.944 900.77 356.448ZM881.57 351.744C881.57 349.44 880.802 347.648 879.266 346.368C877.73 345.024 875.81 344.352 873.506 344.352C871.202 344.352 869.314 344.992 867.842 346.272C866.37 347.488 865.41 349.312 864.962 351.744H881.57ZM927.286 339.648C929.398 336.576 931.958 334.144 934.966 332.352C937.974 330.56 941.206 329.664 944.662 329.664V349.728H939.382C935.286 349.728 932.246 350.528 930.262 352.128C928.278 353.728 927.286 356.512 927.286 360.48V384H908.47V330.144H927.286V339.648ZM994.223 372.96H970.223L966.575 384H946.799L971.471 316.32H993.167L1017.74 384H997.871L994.223 372.96ZM989.519 358.56L982.223 336.672L975.023 358.56H989.519ZM1042.69 337.632C1044.16 335.136 1046.24 333.152 1048.93 331.68C1051.62 330.208 1054.79 329.472 1058.44 329.472C1062.72 329.472 1066.6 330.592 1070.05 332.832C1073.57 335.072 1076.32 338.272 1078.31 342.432C1080.36 346.592 1081.38 351.456 1081.38 357.024C1081.38 362.592 1080.36 367.488 1078.31 371.712C1076.32 375.872 1073.57 379.072 1070.05 381.312C1066.6 383.552 1062.72 384.672 1058.44 384.672C1054.79 384.672 1051.62 383.936 1048.93 382.464C1046.31 380.992 1044.23 379.008 1042.69 376.512V409.728H1023.88V330.144H1042.69V337.632ZM1062.28 357.024C1062.28 353.504 1061.32 350.784 1059.4 348.864C1057.54 346.88 1055.24 345.888 1052.48 345.888C1049.73 345.888 1047.4 346.88 1045.48 348.864C1043.62 350.848 1042.69 353.568 1042.69 357.024C1042.69 360.544 1043.62 363.296 1045.48 365.28C1047.4 367.264 1049.73 368.256 1052.48 368.256C1055.24 368.256 1057.54 367.264 1059.4 365.28C1061.32 363.232 1062.28 360.48 1062.28 357.024ZM1107.94 337.632C1109.41 335.136 1111.49 333.152 1114.18 331.68C1116.87 330.208 1120.04 329.472 1123.69 329.472C1127.97 329.472 1131.85 330.592 1135.3 332.832C1138.82 335.072 1141.57 338.272 1143.56 342.432C1145.61 346.592 1146.63 351.456 1146.63 357.024C1146.63 362.592 1145.61 367.488 1143.56 371.712C1141.57 375.872 1138.82 379.072 1135.3 381.312C1131.85 383.552 1127.97 384.672 1123.69 384.672C1120.04 384.672 1116.87 383.936 1114.18 382.464C1111.56 380.992 1109.48 379.008 1107.94 376.512V409.728H1089.13V330.144H1107.94V337.632ZM1127.53 357.024C1127.53 353.504 1126.57 350.784 1124.65 348.864C1122.79 346.88 1120.49 345.888 1117.73 345.888C1114.98 345.888 1112.65 346.88 1110.73 348.864C1108.87 350.848 1107.94 353.568 1107.94 357.024C1107.94 360.544 1108.87 363.296 1110.73 365.28C1112.65 367.264 1114.98 368.256 1117.73 368.256C1120.49 368.256 1122.79 367.264 1124.65 365.28C1126.57 363.232 1127.53 360.48 1127.53 357.024Z" fill="white"/>
</g>
<path d="M515.589 422.436C515.589 419.988 516.141 417.792 517.245 415.848C518.349 413.88 519.849 412.344 521.745 411.24C523.665 410.136 525.789 409.584 528.117 409.584C530.853 409.584 533.241 410.244 535.281 411.564C537.321 412.884 538.809 414.756 539.745 417.18H535.821C535.125 415.668 534.117 414.504 532.797 413.688C531.501 412.872 529.941 412.464 528.117 412.464C526.365 412.464 524.793 412.872 523.401 413.688C522.009 414.504 520.917 415.668 520.125 417.18C519.333 418.668 518.937 420.42 518.937 422.436C518.937 424.428 519.333 426.18 520.125 427.692C520.917 429.18 522.009 430.332 523.401 431.148C524.793 431.964 526.365 432.372 528.117 432.372C529.941 432.372 531.501 431.976 532.797 431.184C534.117 430.368 535.125 429.204 535.821 427.692H539.745C538.809 430.092 537.321 431.952 535.281 433.272C533.241 434.568 530.853 435.216 528.117 435.216C525.789 435.216 523.665 434.676 521.745 433.596C519.849 432.492 518.349 430.968 517.245 429.024C516.141 427.08 515.589 424.884 515.589 422.436ZM554.414 414.912C555.902 414.912 557.246 415.236 558.446 415.884C559.646 416.508 560.582 417.456 561.254 418.728C561.95 420 562.298 421.548 562.298 423.372V435H559.058V423.84C559.058 421.872 558.566 420.372 557.582 419.34C556.598 418.284 555.254 417.756 553.55 417.756C551.822 417.756 550.442 418.296 549.41 419.376C548.402 420.456 547.898 422.028 547.898 424.092V435H544.622V408.36H547.898V418.08C548.546 417.072 549.434 416.292 550.562 415.74C551.714 415.188 552.998 414.912 554.414 414.912ZM585.649 424.38C585.649 425.004 585.613 425.664 585.541 426.36H569.773C569.893 428.304 570.553 429.828 571.753 430.932C572.977 432.012 574.453 432.552 576.181 432.552C577.597 432.552 578.773 432.228 579.709 431.58C580.669 430.908 581.341 430.02 581.725 428.916H585.253C584.725 430.812 583.669 432.36 582.085 433.56C580.501 434.736 578.533 435.324 576.181 435.324C574.309 435.324 572.629 434.904 571.141 434.064C569.677 433.224 568.525 432.036 567.685 430.5C566.845 428.94 566.425 427.14 566.425 425.1C566.425 423.06 566.833 421.272 567.649 419.736C568.465 418.2 569.605 417.024 571.069 416.208C572.557 415.368 574.261 414.948 576.181 414.948C578.053 414.948 579.709 415.356 581.149 416.172C582.589 416.988 583.693 418.116 584.461 419.556C585.253 420.972 585.649 422.58 585.649 424.38ZM582.265 423.696C582.265 422.448 581.989 421.38 581.437 420.492C580.885 419.58 580.129 418.896 579.169 418.44C578.233 417.96 577.189 417.72 576.037 417.72C574.381 417.72 572.965 418.248 571.789 419.304C570.637 420.36 569.977 421.824 569.809 423.696H582.265ZM588.749 425.1C588.749 423.06 589.157 421.284 589.973 419.772C590.789 418.236 591.917 417.048 593.357 416.208C594.821 415.368 596.489 414.948 598.361 414.948C600.785 414.948 602.777 415.536 604.337 416.712C605.921 417.888 606.965 419.52 607.469 421.608H603.941C603.605 420.408 602.945 419.46 601.961 418.764C601.001 418.068 599.801 417.72 598.361 417.72C596.489 417.72 594.977 418.368 593.825 419.664C592.673 420.936 592.097 422.748 592.097 425.1C592.097 427.476 592.673 429.312 593.825 430.608C594.977 431.904 596.489 432.552 598.361 432.552C599.801 432.552 601.001 432.216 601.961 431.544C602.921 430.872 603.581 429.912 603.941 428.664H607.469C606.941 430.68 605.885 432.3 604.301 433.524C602.717 434.724 600.737 435.324 598.361 435.324C596.489 435.324 594.821 434.904 593.357 434.064C591.917 433.224 590.789 432.036 589.973 430.5C589.157 428.964 588.749 427.164 588.749 425.1ZM622.856 435L615.116 426.288V435H611.84V408.36H615.116V424.02L622.712 415.272H627.284L617.996 425.1L627.32 435H622.856ZM648.569 435.324C646.721 435.324 645.041 434.904 643.529 434.064C642.041 433.224 640.865 432.036 640.001 430.5C639.161 428.94 638.741 427.14 638.741 425.1C638.741 423.084 639.173 421.308 640.037 419.772C640.925 418.212 642.125 417.024 643.637 416.208C645.149 415.368 646.841 414.948 648.713 414.948C650.585 414.948 652.277 415.368 653.789 416.208C655.301 417.024 656.489 418.2 657.353 419.736C658.241 421.272 658.685 423.06 658.685 425.1C658.685 427.14 658.229 428.94 657.317 430.5C656.429 432.036 655.217 433.224 653.681 434.064C652.145 434.904 650.441 435.324 648.569 435.324ZM648.569 432.444C649.745 432.444 650.849 432.168 651.881 431.616C652.913 431.064 653.741 430.236 654.365 429.132C655.013 428.028 655.337 426.684 655.337 425.1C655.337 423.516 655.025 422.172 654.401 421.068C653.777 419.964 652.961 419.148 651.953 418.62C650.945 418.068 649.853 417.792 648.677 417.792C647.477 417.792 646.373 418.068 645.365 418.62C644.381 419.148 643.589 419.964 642.989 421.068C642.389 422.172 642.089 423.516 642.089 425.1C642.089 426.708 642.377 428.064 642.953 429.168C643.553 430.272 644.345 431.1 645.329 431.652C646.313 432.18 647.393 432.444 648.569 432.444ZM680.489 415.272V435H677.213V432.084C676.589 433.092 675.713 433.884 674.585 434.46C673.481 435.012 672.257 435.288 670.913 435.288C669.377 435.288 667.997 434.976 666.773 434.352C665.549 433.704 664.577 432.744 663.857 431.472C663.161 430.2 662.813 428.652 662.813 426.828V415.272H666.053V426.396C666.053 428.34 666.545 429.84 667.529 430.896C668.513 431.928 669.857 432.444 671.561 432.444C673.313 432.444 674.693 431.904 675.701 430.824C676.709 429.744 677.213 428.172 677.213 426.108V415.272H680.489ZM690.016 417.972V429.6C690.016 430.56 690.22 431.244 690.628 431.652C691.036 432.036 691.744 432.228 692.752 432.228H695.164V435H692.212C690.388 435 689.02 434.58 688.108 433.74C687.196 432.9 686.74 431.52 686.74 429.6V417.972H684.184V415.272H686.74V410.304H690.016V415.272H695.164V417.972H690.016ZM712.727 417.972V429.6C712.727 430.56 712.931 431.244 713.339 431.652C713.747 432.036 714.455 432.228 715.463 432.228H717.875V435H714.923C713.099 435 711.731 434.58 710.819 433.74C709.907 432.9 709.451 431.52 709.451 429.6V417.972H706.895V415.272H709.451V410.304H712.727V415.272H717.875V417.972H712.727ZM731.636 414.912C733.124 414.912 734.468 415.236 735.668 415.884C736.868 416.508 737.804 417.456 738.476 418.728C739.172 420 739.52 421.548 739.52 423.372V435H736.28V423.84C736.28 421.872 735.788 420.372 734.804 419.34C733.82 418.284 732.476 417.756 730.772 417.756C729.044 417.756 727.664 418.296 726.632 419.376C725.624 420.456 725.12 422.028 725.12 424.092V435H721.844V408.36H725.12V418.08C725.768 417.072 726.656 416.292 727.784 415.74C728.936 415.188 730.22 414.912 731.636 414.912ZM762.872 424.38C762.872 425.004 762.836 425.664 762.764 426.36H746.996C747.116 428.304 747.776 429.828 748.976 430.932C750.2 432.012 751.676 432.552 753.404 432.552C754.82 432.552 755.996 432.228 756.932 431.58C757.892 430.908 758.564 430.02 758.948 428.916H762.476C761.948 430.812 760.892 432.36 759.308 433.56C757.724 434.736 755.756 435.324 753.404 435.324C751.532 435.324 749.852 434.904 748.364 434.064C746.9 433.224 745.748 432.036 744.908 430.5C744.068 428.94 743.648 427.14 743.648 425.1C743.648 423.06 744.056 421.272 744.872 419.736C745.688 418.2 746.828 417.024 748.292 416.208C749.78 415.368 751.484 414.948 753.404 414.948C755.276 414.948 756.932 415.356 758.372 416.172C759.812 416.988 760.916 418.116 761.684 419.556C762.476 420.972 762.872 422.58 762.872 424.38ZM759.488 423.696C759.488 422.448 759.212 421.38 758.66 420.492C758.108 419.58 757.352 418.896 756.392 418.44C755.456 417.96 754.412 417.72 753.26 417.72C751.604 417.72 750.188 418.248 749.012 419.304C747.86 420.36 747.2 421.824 747.032 423.696H759.488ZM803.073 415.272L796.917 435H793.533L788.781 419.34L784.029 435H780.645L774.453 415.272H777.801L782.337 431.832L787.233 415.272H790.581L795.369 431.868L799.833 415.272H803.073ZM824.325 424.38C824.325 425.004 824.289 425.664 824.217 426.36H808.449C808.569 428.304 809.229 429.828 810.429 430.932C811.653 432.012 813.129 432.552 814.857 432.552C816.273 432.552 817.449 432.228 818.385 431.58C819.345 430.908 820.017 430.02 820.401 428.916H823.929C823.401 430.812 822.345 432.36 820.761 433.56C819.177 434.736 817.209 435.324 814.857 435.324C812.985 435.324 811.305 434.904 809.817 434.064C808.353 433.224 807.201 432.036 806.361 430.5C805.521 428.94 805.101 427.14 805.101 425.1C805.101 423.06 805.509 421.272 806.325 419.736C807.141 418.2 808.281 417.024 809.745 416.208C811.233 415.368 812.937 414.948 814.857 414.948C816.729 414.948 818.385 415.356 819.825 416.172C821.265 416.988 822.369 418.116 823.137 419.556C823.929 420.972 824.325 422.58 824.325 424.38ZM820.941 423.696C820.941 422.448 820.665 421.38 820.113 420.492C819.561 419.58 818.805 418.896 817.845 418.44C816.909 417.96 815.865 417.72 814.713 417.72C813.057 417.72 811.641 418.248 810.465 419.304C809.313 420.36 808.653 421.824 808.485 423.696H820.941ZM827.425 425.064C827.425 423.048 827.833 421.284 828.649 419.772C829.465 418.236 830.581 417.048 831.997 416.208C833.437 415.368 835.033 414.948 836.785 414.948C838.513 414.948 840.013 415.32 841.285 416.064C842.557 416.808 843.505 417.744 844.129 418.872V415.272H847.441V435H844.129V431.328C843.481 432.48 842.509 433.44 841.213 434.208C839.941 434.952 838.453 435.324 836.749 435.324C834.997 435.324 833.413 434.892 831.997 434.028C830.581 433.164 829.465 431.952 828.649 430.392C827.833 428.832 827.425 427.056 827.425 425.064ZM844.129 425.1C844.129 423.612 843.829 422.316 843.229 421.212C842.629 420.108 841.813 419.268 840.781 418.692C839.773 418.092 838.657 417.792 837.433 417.792C836.209 417.792 835.093 418.08 834.085 418.656C833.077 419.232 832.273 420.072 831.673 421.176C831.073 422.28 830.773 423.576 830.773 425.064C830.773 426.576 831.073 427.896 831.673 429.024C832.273 430.128 833.077 430.98 834.085 431.58C835.093 432.156 836.209 432.444 837.433 432.444C838.657 432.444 839.773 432.156 840.781 431.58C841.813 430.98 842.629 430.128 843.229 429.024C843.829 427.896 844.129 426.588 844.129 425.1ZM856.973 417.972V429.6C856.973 430.56 857.177 431.244 857.585 431.652C857.993 432.036 858.701 432.228 859.709 432.228H862.121V435H859.169C857.345 435 855.977 434.58 855.065 433.74C854.153 432.9 853.697 431.52 853.697 429.6V417.972H851.141V415.272H853.697V410.304H856.973V415.272H862.121V417.972H856.973ZM875.882 414.912C877.37 414.912 878.714 415.236 879.914 415.884C881.114 416.508 882.05 417.456 882.722 418.728C883.418 420 883.766 421.548 883.766 423.372V435H880.526V423.84C880.526 421.872 880.034 420.372 879.05 419.34C878.066 418.284 876.722 417.756 875.018 417.756C873.29 417.756 871.91 418.296 870.878 419.376C869.87 420.456 869.366 422.028 869.366 424.092V435H866.09V408.36H869.366V418.08C870.014 417.072 870.902 416.292 872.03 415.74C873.182 415.188 874.466 414.912 875.882 414.912ZM907.118 424.38C907.118 425.004 907.082 425.664 907.01 426.36H891.242C891.362 428.304 892.022 429.828 893.222 430.932C894.446 432.012 895.922 432.552 897.65 432.552C899.066 432.552 900.242 432.228 901.178 431.58C902.138 430.908 902.81 430.02 903.194 428.916H906.722C906.194 430.812 905.138 432.36 903.554 433.56C901.97 434.736 900.002 435.324 897.65 435.324C895.778 435.324 894.098 434.904 892.61 434.064C891.146 433.224 889.994 432.036 889.154 430.5C888.314 428.94 887.894 427.14 887.894 425.1C887.894 423.06 888.302 421.272 889.118 419.736C889.934 418.2 891.074 417.024 892.538 416.208C894.026 415.368 895.73 414.948 897.65 414.948C899.522 414.948 901.178 415.356 902.618 416.172C904.058 416.988 905.162 418.116 905.93 419.556C906.722 420.972 907.118 422.58 907.118 424.38ZM903.734 423.696C903.734 422.448 903.458 421.38 902.906 420.492C902.354 419.58 901.598 418.896 900.638 418.44C899.702 417.96 898.658 417.72 897.506 417.72C895.85 417.72 894.434 418.248 893.258 419.304C892.106 420.36 891.446 421.824 891.278 423.696H903.734ZM914.718 418.476C915.294 417.348 916.11 416.472 917.166 415.848C918.246 415.224 919.554 414.912 921.09 414.912V418.296H920.226C916.554 418.296 914.718 420.288 914.718 424.272V435H911.442V415.272H914.718V418.476ZM936.161 412.068C935.537 412.068 935.009 411.852 934.577 411.42C934.145 410.988 933.929 410.46 933.929 409.836C933.929 409.212 934.145 408.684 934.577 408.252C935.009 407.82 935.537 407.604 936.161 407.604C936.761 407.604 937.265 407.82 937.673 408.252C938.105 408.684 938.321 409.212 938.321 409.836C938.321 410.46 938.105 410.988 937.673 411.42C937.265 411.852 936.761 412.068 936.161 412.068ZM937.745 415.272V435H934.469V415.272H937.745ZM952.941 414.912C955.341 414.912 957.285 415.644 958.773 417.108C960.261 418.548 961.005 420.636 961.005 423.372V435H957.765V423.84C957.765 421.872 957.273 420.372 956.289 419.34C955.305 418.284 953.961 417.756 952.257 417.756C950.529 417.756 949.149 418.296 948.117 419.376C947.109 420.456 946.605 422.028 946.605 424.092V435H943.329V415.272H946.605V418.08C947.253 417.072 948.129 416.292 949.233 415.74C950.361 415.188 951.597 414.912 952.941 414.912ZM992.946 415.272L981.066 444.288H977.682L981.57 434.784L973.614 415.272H977.25L983.442 431.256L989.562 415.272H992.946ZM1004.84 435.324C1002.99 435.324 1001.31 434.904 999.803 434.064C998.315 433.224 997.139 432.036 996.275 430.5C995.435 428.94 995.015 427.14 995.015 425.1C995.015 423.084 995.447 421.308 996.311 419.772C997.199 418.212 998.399 417.024 999.911 416.208C1001.42 415.368 1003.11 414.948 1004.99 414.948C1006.86 414.948 1008.55 415.368 1010.06 416.208C1011.57 417.024 1012.76 418.2 1013.63 419.736C1014.51 421.272 1014.96 423.06 1014.96 425.1C1014.96 427.14 1014.5 428.94 1013.59 430.5C1012.7 432.036 1011.49 433.224 1009.95 434.064C1008.42 434.904 1006.71 435.324 1004.84 435.324ZM1004.84 432.444C1006.02 432.444 1007.12 432.168 1008.15 431.616C1009.19 431.064 1010.01 430.236 1010.64 429.132C1011.29 428.028 1011.61 426.684 1011.61 425.1C1011.61 423.516 1011.3 422.172 1010.67 421.068C1010.05 419.964 1009.23 419.148 1008.23 418.62C1007.22 418.068 1006.13 417.792 1004.95 417.792C1003.75 417.792 1002.65 418.068 1001.64 418.62C1000.65 419.148 999.863 419.964 999.263 421.068C998.663 422.172 998.363 423.516 998.363 425.1C998.363 426.708 998.651 428.064 999.227 429.168C999.827 430.272 1000.62 431.1 1001.6 431.652C1002.59 432.18 1003.67 432.444 1004.84 432.444ZM1036.76 415.272V435H1033.49V432.084C1032.86 433.092 1031.99 433.884 1030.86 434.46C1029.75 435.012 1028.53 435.288 1027.19 435.288C1025.65 435.288 1024.27 434.976 1023.05 434.352C1021.82 433.704 1020.85 432.744 1020.13 431.472C1019.43 430.2 1019.09 428.652 1019.09 426.828V415.272H1022.33V426.396C1022.33 428.34 1022.82 429.84 1023.8 430.896C1024.79 431.928 1026.13 432.444 1027.83 432.444C1029.59 432.444 1030.97 431.904 1031.97 430.824C1032.98 429.744 1033.49 428.172 1033.49 426.108V415.272H1036.76ZM1045.57 418.476C1046.15 417.348 1046.96 416.472 1048.02 415.848C1049.1 415.224 1050.41 414.912 1051.94 414.912V418.296H1051.08C1047.41 418.296 1045.57 420.288 1045.57 424.272V435H1042.29V415.272H1045.57V418.476ZM1064.1 425.064C1064.1 423.048 1064.5 421.284 1065.32 419.772C1066.14 418.236 1067.25 417.048 1068.67 416.208C1070.11 415.368 1071.7 414.948 1073.46 414.948C1075.18 414.948 1076.68 415.32 1077.96 416.064C1079.23 416.808 1080.18 417.744 1080.8 418.872V415.272H1084.11V435H1080.8V431.328C1080.15 432.48 1079.18 433.44 1077.88 434.208C1076.61 434.952 1075.12 435.324 1073.42 435.324C1071.67 435.324 1070.08 434.892 1068.67 434.028C1067.25 433.164 1066.14 431.952 1065.32 430.392C1064.5 428.832 1064.1 427.056 1064.1 425.064ZM1080.8 425.1C1080.8 423.612 1080.5 422.316 1079.9 421.212C1079.3 420.108 1078.48 419.268 1077.45 418.692C1076.44 418.092 1075.33 417.792 1074.1 417.792C1072.88 417.792 1071.76 418.08 1070.76 418.656C1069.75 419.232 1068.94 420.072 1068.34 421.176C1067.74 422.28 1067.44 423.576 1067.44 425.064C1067.44 426.576 1067.74 427.896 1068.34 429.024C1068.94 430.128 1069.75 430.98 1070.76 431.58C1071.76 432.156 1072.88 432.444 1074.1 432.444C1075.33 432.444 1076.44 432.156 1077.45 431.58C1078.48 430.98 1079.3 430.128 1079.9 429.024C1080.5 427.896 1080.8 426.588 1080.8 425.1ZM1092.92 418.476C1093.5 417.348 1094.32 416.472 1095.37 415.848C1096.45 415.224 1097.76 414.912 1099.3 414.912V418.296H1098.43C1094.76 418.296 1092.92 420.288 1092.92 424.272V435H1089.65V415.272H1092.92V418.476ZM1121.08 424.38C1121.08 425.004 1121.04 425.664 1120.97 426.36H1105.2C1105.32 428.304 1105.98 429.828 1107.18 430.932C1108.41 432.012 1109.88 432.552 1111.61 432.552C1113.03 432.552 1114.2 432.228 1115.14 431.58C1116.1 430.908 1116.77 430.02 1117.15 428.916H1120.68C1120.15 430.812 1119.1 432.36 1117.51 433.56C1115.93 434.736 1113.96 435.324 1111.61 435.324C1109.74 435.324 1108.06 434.904 1106.57 434.064C1105.11 433.224 1103.95 432.036 1103.11 430.5C1102.27 428.94 1101.85 427.14 1101.85 425.1C1101.85 423.06 1102.26 421.272 1103.08 419.736C1103.89 418.2 1105.03 417.024 1106.5 416.208C1107.99 415.368 1109.69 414.948 1111.61 414.948C1113.48 414.948 1115.14 415.356 1116.58 416.172C1118.02 416.988 1119.12 418.116 1119.89 419.556C1120.68 420.972 1121.08 422.58 1121.08 424.38ZM1117.69 423.696C1117.69 422.448 1117.42 421.38 1116.87 420.492C1116.31 419.58 1115.56 418.896 1114.6 418.44C1113.66 417.96 1112.62 417.72 1111.47 417.72C1109.81 417.72 1108.39 418.248 1107.22 419.304C1106.07 420.36 1105.41 421.824 1105.24 423.696H1117.69ZM1124.18 425.064C1124.18 423.048 1124.59 421.284 1125.4 419.772C1126.22 418.236 1127.33 417.048 1128.75 416.208C1130.19 415.368 1131.79 414.948 1133.54 414.948C1135.27 414.948 1136.77 415.32 1138.04 416.064C1139.31 416.808 1140.26 417.744 1140.88 418.872V415.272H1144.19V435H1140.88V431.328C1140.23 432.48 1139.26 433.44 1137.97 434.208C1136.69 434.952 1135.21 435.324 1133.5 435.324C1131.75 435.324 1130.17 434.892 1128.75 434.028C1127.33 433.164 1126.22 431.952 1125.4 430.392C1124.59 428.832 1124.18 427.056 1124.18 425.064ZM1140.88 425.1C1140.88 423.612 1140.58 422.316 1139.98 421.212C1139.38 420.108 1138.57 419.268 1137.53 418.692C1136.53 418.092 1135.41 417.792 1134.19 417.792C1132.96 417.792 1131.85 418.08 1130.84 418.656C1129.83 419.232 1129.03 420.072 1128.43 421.176C1127.83 422.28 1127.53 423.576 1127.53 425.064C1127.53 426.576 1127.83 427.896 1128.43 429.024C1129.03 430.128 1129.83 430.98 1130.84 431.58C1131.85 432.156 1132.96 432.444 1134.19 432.444C1135.41 432.444 1136.53 432.156 1137.53 431.58C1138.57 430.98 1139.38 430.128 1139.98 429.024C1140.58 427.896 1140.88 426.588 1140.88 425.1Z" fill="black" fill-opacity="0.49"/>
</g>
<defs>
<filter id="filter0_d" x="497.592" y="305.96" width="664.038" height="126.768" filterUnits="userSpaceOnUse" color-interpolation-filters="sRGB">
<feFlood flood-opacity="0" result="BackgroundImageFix"/>
<feColorMatrix in="SourceAlpha" type="matrix" values="0 0 0 0 0 0 0 0 0 0 0 0 0 0 0 0 0 0 127 0"/>
<feOffset dy="8"/>
<feGaussianBlur stdDeviation="7.5"/>
<feColorMatrix type="matrix" values="0 0 0 0 0 0 0 0 0 0 0 0 0 0 0 0 0 0 0.12 0"/>
<feBlend mode="normal" in2="BackgroundImageFix" result="effect1_dropShadow"/>
<feBlend mode="normal" in="SourceGraphic" in2="effect1_dropShadow" result="shape"/>
</filter>
<linearGradient id="paint0_linear" x1="0" y1="0" x2="1188" y2="726" gradientUnits="userSpaceOnUse">
<stop stop-color="#ABF0FF"/>
<stop offset="1" stop-color="#57E1FF"/>
</linearGradient>
<linearGradient id="paint1_linear" x1="-120.982" y1="483.76" x2="470.919" y2="759.805" gradientUnits="userSpaceOnUse">
<stop stop-color="white" stop-opacity="0.2"/>
<stop offset="1" stop-color="white" stop-opacity="0"/>
</linearGradient>
<clipPath id="clip0">
<rect width="1188" height="726" fill="white"/>
</clipPath>
</defs>
</svg>
