<svg width="1188" height="726" viewBox="0 0 1188 726" fill="none" xmlns="http://www.w3.org/2000/svg">
<rect width="1188" height="726" fill="#3687FF"/>
<path d="M398.576 353.248C402.544 354.144 405.68 356.128 407.984 359.2C410.352 362.208 411.536 365.664 411.536 369.568C411.536 375.328 409.552 379.84 405.584 383.104C401.616 386.368 396.048 388 388.88 388H355.376V320.32H387.824C394.736 320.32 400.144 321.856 404.048 324.928C408.016 328 410 332.32 410 337.888C410 341.856 408.944 345.184 406.832 347.872C404.784 350.496 402.032 352.288 398.576 353.248ZM374.192 347.2H383.696C388.432 347.2 390.8 345.248 390.8 341.344C390.8 337.312 388.432 335.296 383.696 335.296H374.192V347.2ZM385.136 372.832C389.872 372.832 392.24 370.848 392.24 366.88C392.24 364.832 391.6 363.264 390.32 362.176C389.104 361.088 387.344 360.544 385.04 360.544H374.192V372.832H385.136ZM416.71 361.024C416.71 355.456 417.702 350.592 419.686 346.432C421.734 342.272 424.486 339.072 427.942 336.832C431.462 334.592 435.366 333.472 439.654 333.472C443.366 333.472 446.566 334.208 449.254 335.68C451.942 337.152 454.022 339.136 455.494 341.632V334.144H474.31V388H455.494V380.512C454.022 383.008 451.91 384.992 449.158 386.464C446.47 387.936 443.302 388.672 439.654 388.672C435.366 388.672 431.462 387.552 427.942 385.312C424.486 383.072 421.734 379.872 419.686 375.712C417.702 371.488 416.71 366.592 416.71 361.024ZM455.494 361.024C455.494 357.568 454.534 354.848 452.614 352.864C450.758 350.88 448.454 349.888 445.702 349.888C442.886 349.888 440.55 350.88 438.694 352.864C436.838 354.784 435.91 357.504 435.91 361.024C435.91 364.48 436.838 367.232 438.694 369.28C440.55 371.264 442.886 372.256 445.702 372.256C448.454 372.256 450.758 371.264 452.614 369.28C454.534 367.296 455.494 364.544 455.494 361.024ZM543.016 334.144L508.84 413.632H488.392L501.256 385.696L479.176 334.144H500.104L511.432 364.672L522.376 334.144H543.016ZM544.867 361.024C544.867 355.456 545.859 350.592 547.843 346.432C549.891 342.272 552.643 339.072 556.099 336.832C559.619 334.592 563.523 333.472 567.811 333.472C571.523 333.472 574.723 334.208 577.411 335.68C580.099 337.152 582.179 339.136 583.651 341.632V334.144H602.467V388H583.651V380.512C582.179 383.008 580.067 384.992 577.315 386.464C574.627 387.936 571.459 388.672 567.811 388.672C563.523 388.672 559.619 387.552 556.099 385.312C552.643 383.072 549.891 379.872 547.843 375.712C545.859 371.488 544.867 366.592 544.867 361.024ZM583.651 361.024C583.651 357.568 582.691 354.848 580.771 352.864C578.915 350.88 576.611 349.888 573.859 349.888C571.043 349.888 568.707 350.88 566.851 352.864C564.995 354.784 564.067 357.504 564.067 361.024C564.067 364.48 564.995 367.232 566.851 369.28C568.707 371.264 571.043 372.256 573.859 372.256C576.611 372.256 578.915 371.264 580.771 369.28C582.691 367.296 583.651 364.544 583.651 361.024ZM648.421 333.664C654.629 333.664 659.557 335.744 663.205 339.904C666.853 344 668.677 349.568 668.677 356.608V388H649.861V359.104C649.861 356.032 649.061 353.632 647.461 351.904C645.861 350.112 643.717 349.216 641.029 349.216C638.213 349.216 636.005 350.112 634.405 351.904C632.805 353.632 632.005 356.032 632.005 359.104V388H613.189V334.144H632.005V341.824C633.669 339.392 635.909 337.44 638.725 335.968C641.541 334.432 644.773 333.664 648.421 333.664ZM688.505 329.152C685.177 329.152 682.489 328.256 680.441 326.464C678.457 324.608 677.465 322.304 677.465 319.552C677.465 316.736 678.457 314.4 680.441 312.544C682.489 310.688 685.177 309.76 688.505 309.76C691.769 309.76 694.393 310.688 696.377 312.544C698.425 314.4 699.449 316.736 699.449 319.552C699.449 322.304 698.425 324.608 696.377 326.464C694.393 328.256 691.769 329.152 688.505 329.152ZM697.817 334.144V388H679.001V334.144H697.817ZM743.956 333.664C750.1 333.664 754.964 335.744 758.548 339.904C762.196 344 764.02 349.568 764.02 356.608V388H745.204V359.104C745.204 356.032 744.404 353.632 742.804 351.904C741.204 350.112 739.06 349.216 736.372 349.216C733.556 349.216 731.348 350.112 729.748 351.904C728.148 353.632 727.348 356.032 727.348 359.104V388H708.532V316.96H727.348V341.824C729.012 339.392 731.252 337.44 734.068 335.968C736.948 334.432 740.244 333.664 743.956 333.664ZM771.273 361.024C771.273 355.456 772.265 350.592 774.249 346.432C776.297 342.272 779.049 339.072 782.505 336.832C786.025 334.592 789.929 333.472 794.217 333.472C797.929 333.472 801.129 334.208 803.817 335.68C806.505 337.152 808.585 339.136 810.057 341.632V334.144H828.873V388H810.057V380.512C808.585 383.008 806.473 384.992 803.721 386.464C801.033 387.936 797.865 388.672 794.217 388.672C789.929 388.672 786.025 387.552 782.505 385.312C779.049 383.072 776.297 379.872 774.249 375.712C772.265 371.488 771.273 366.592 771.273 361.024ZM810.057 361.024C810.057 357.568 809.097 354.848 807.177 352.864C805.321 350.88 803.017 349.888 800.265 349.888C797.449 349.888 795.113 350.88 793.257 352.864C791.401 354.784 790.473 357.504 790.473 361.024C790.473 364.48 791.401 367.232 793.257 369.28C795.113 371.264 797.449 372.256 800.265 372.256C803.017 372.256 805.321 371.264 807.177 369.28C809.097 367.296 810.057 364.544 810.057 361.024ZM874.827 333.664C881.035 333.664 885.963 335.744 889.611 339.904C893.259 344 895.083 349.568 895.083 356.608V388H876.267V359.104C876.267 356.032 875.467 353.632 873.867 351.904C872.267 350.112 870.123 349.216 867.435 349.216C864.619 349.216 862.411 350.112 860.811 351.904C859.211 353.632 858.411 356.032 858.411 359.104V388H839.595V334.144H858.411V341.824C860.075 339.392 862.315 337.44 865.131 335.968C867.947 334.432 871.179 333.664 874.827 333.664ZM958.879 342.88C958.879 346.976 957.919 350.72 955.999 354.112C954.143 357.44 951.295 360.128 947.455 362.176C943.679 364.16 939.039 365.152 933.535 365.152H924.223V388H905.407V320.32H933.535C938.975 320.32 943.583 321.28 947.359 323.2C951.199 325.12 954.079 327.776 955.999 331.168C957.919 334.56 958.879 338.464 958.879 342.88ZM931.711 350.176C937.023 350.176 939.679 347.744 939.679 342.88C939.679 337.952 937.023 335.488 931.711 335.488H924.223V350.176H931.711ZM1027.01 320.32V388H1008.2V360.832H985.255V388H966.439V320.32H985.255V345.76H1008.2V320.32H1027.01Z" fill="white"/>
<path d="M452.308 419.908V422.572H441.4V431.032H450.256V433.696H441.4V445H438.124V419.908H452.308ZM457.956 422.068C457.332 422.068 456.804 421.852 456.372 421.42C455.94 420.988 455.724 420.46 455.724 419.836C455.724 419.212 455.94 418.684 456.372 418.252C456.804 417.82 457.332 417.604 457.956 417.604C458.556 417.604 459.06 417.82 459.468 418.252C459.9 418.684 460.116 419.212 460.116 419.836C460.116 420.46 459.9 420.988 459.468 421.42C459.06 421.852 458.556 422.068 457.956 422.068ZM459.54 425.272V445H456.264V425.272H459.54ZM474.736 424.912C477.136 424.912 479.08 425.644 480.568 427.108C482.056 428.548 482.8 430.636 482.8 433.372V445H479.56V433.84C479.56 431.872 479.068 430.372 478.084 429.34C477.1 428.284 475.756 427.756 474.052 427.756C472.324 427.756 470.944 428.296 469.912 429.376C468.904 430.456 468.4 432.028 468.4 434.092V445H465.124V425.272H468.4V428.08C469.048 427.072 469.924 426.292 471.028 425.74C472.156 425.188 473.392 424.912 474.736 424.912ZM486.927 435.064C486.927 433.048 487.335 431.284 488.151 429.772C488.967 428.236 490.083 427.048 491.499 426.208C492.939 425.368 494.547 424.948 496.323 424.948C497.859 424.948 499.287 425.308 500.607 426.028C501.927 426.724 502.935 427.648 503.631 428.8V418.36H506.943V445H503.631V441.292C502.983 442.468 502.023 443.44 500.751 444.208C499.479 444.952 497.991 445.324 496.287 445.324C494.535 445.324 492.939 444.892 491.499 444.028C490.083 443.164 488.967 441.952 488.151 440.392C487.335 438.832 486.927 437.056 486.927 435.064ZM503.631 435.1C503.631 433.612 503.331 432.316 502.731 431.212C502.131 430.108 501.315 429.268 500.283 428.692C499.275 428.092 498.159 427.792 496.935 427.792C495.711 427.792 494.595 428.08 493.587 428.656C492.579 429.232 491.775 430.072 491.175 431.176C490.575 432.28 490.275 433.576 490.275 435.064C490.275 436.576 490.575 437.896 491.175 439.024C491.775 440.128 492.579 440.98 493.587 441.58C494.595 442.156 495.711 442.444 496.935 442.444C498.159 442.444 499.275 442.156 500.283 441.58C501.315 440.98 502.131 440.128 502.731 439.024C503.331 437.896 503.631 436.588 503.631 435.1ZM526.073 427.972V439.6C526.073 440.56 526.277 441.244 526.685 441.652C527.093 442.036 527.801 442.228 528.809 442.228H531.221V445H528.269C526.445 445 525.077 444.58 524.165 443.74C523.253 442.9 522.797 441.52 522.797 439.6V427.972H520.241V425.272H522.797V420.304H526.073V425.272H531.221V427.972H526.073ZM544.982 424.912C546.47 424.912 547.814 425.236 549.014 425.884C550.214 426.508 551.15 427.456 551.822 428.728C552.518 430 552.866 431.548 552.866 433.372V445H549.626V433.84C549.626 431.872 549.134 430.372 548.15 429.34C547.166 428.284 545.822 427.756 544.118 427.756C542.39 427.756 541.01 428.296 539.978 429.376C538.97 430.456 538.466 432.028 538.466 434.092V445H535.19V418.36H538.466V428.08C539.114 427.072 540.002 426.292 541.13 425.74C542.282 425.188 543.566 424.912 544.982 424.912ZM576.217 434.38C576.217 435.004 576.181 435.664 576.109 436.36H560.341C560.461 438.304 561.121 439.828 562.321 440.932C563.545 442.012 565.021 442.552 566.749 442.552C568.165 442.552 569.341 442.228 570.277 441.58C571.237 440.908 571.909 440.02 572.293 438.916H575.821C575.293 440.812 574.237 442.36 572.653 443.56C571.069 444.736 569.101 445.324 566.749 445.324C564.877 445.324 563.197 444.904 561.709 444.064C560.245 443.224 559.093 442.036 558.253 440.5C557.413 438.94 556.993 437.14 556.993 435.1C556.993 433.06 557.401 431.272 558.217 429.736C559.033 428.2 560.173 427.024 561.637 426.208C563.125 425.368 564.829 424.948 566.749 424.948C568.621 424.948 570.277 425.356 571.717 426.172C573.157 426.988 574.261 428.116 575.029 429.556C575.821 430.972 576.217 432.58 576.217 434.38ZM572.833 433.696C572.833 432.448 572.557 431.38 572.005 430.492C571.453 429.58 570.697 428.896 569.737 428.44C568.801 427.96 567.757 427.72 566.605 427.72C564.949 427.72 563.533 428.248 562.357 429.304C561.205 430.36 560.545 431.824 560.377 433.696H572.833ZM599.751 424.912C602.151 424.912 604.095 425.644 605.583 427.108C607.071 428.548 607.815 430.636 607.815 433.372V445H604.575V433.84C604.575 431.872 604.083 430.372 603.099 429.34C602.115 428.284 600.771 427.756 599.067 427.756C597.339 427.756 595.959 428.296 594.927 429.376C593.919 430.456 593.415 432.028 593.415 434.092V445H590.139V425.272H593.415V428.08C594.063 427.072 594.939 426.292 596.043 425.74C597.171 425.188 598.407 424.912 599.751 424.912ZM631.167 434.38C631.167 435.004 631.131 435.664 631.059 436.36H615.291C615.411 438.304 616.071 439.828 617.271 440.932C618.495 442.012 619.971 442.552 621.699 442.552C623.115 442.552 624.291 442.228 625.227 441.58C626.187 440.908 626.859 440.02 627.243 438.916H630.771C630.243 440.812 629.187 442.36 627.603 443.56C626.019 444.736 624.051 445.324 621.699 445.324C619.827 445.324 618.147 444.904 616.659 444.064C615.195 443.224 614.043 442.036 613.203 440.5C612.363 438.94 611.943 437.14 611.943 435.1C611.943 433.06 612.351 431.272 613.167 429.736C613.983 428.2 615.123 427.024 616.587 426.208C618.075 425.368 619.779 424.948 621.699 424.948C623.571 424.948 625.227 425.356 626.667 426.172C628.107 426.988 629.211 428.116 629.979 429.556C630.771 430.972 631.167 432.58 631.167 434.38ZM627.783 433.696C627.783 432.448 627.507 431.38 626.955 430.492C626.403 429.58 625.647 428.896 624.687 428.44C623.751 427.96 622.707 427.72 621.555 427.72C619.899 427.72 618.483 428.248 617.307 429.304C616.155 430.36 615.495 431.824 615.327 433.696H627.783ZM634.267 435.064C634.267 433.048 634.675 431.284 635.491 429.772C636.307 428.236 637.423 427.048 638.839 426.208C640.279 425.368 641.875 424.948 643.627 424.948C645.355 424.948 646.855 425.32 648.127 426.064C649.399 426.808 650.347 427.744 650.971 428.872V425.272H654.283V445H650.971V441.328C650.323 442.48 649.351 443.44 648.055 444.208C646.783 444.952 645.295 445.324 643.591 445.324C641.839 445.324 640.255 444.892 638.839 444.028C637.423 443.164 636.307 441.952 635.491 440.392C634.675 438.832 634.267 437.056 634.267 435.064ZM650.971 435.1C650.971 433.612 650.671 432.316 650.071 431.212C649.471 430.108 648.655 429.268 647.623 428.692C646.615 428.092 645.499 427.792 644.275 427.792C643.051 427.792 641.935 428.08 640.927 428.656C639.919 429.232 639.115 430.072 638.515 431.176C637.915 432.28 637.615 433.576 637.615 435.064C637.615 436.576 637.915 437.896 638.515 439.024C639.115 440.128 639.919 440.98 640.927 441.58C641.935 442.156 643.051 442.444 644.275 442.444C645.499 442.444 646.615 442.156 647.623 441.58C648.655 440.98 649.471 440.128 650.071 439.024C650.671 437.896 650.971 436.588 650.971 435.1ZM663.095 428.476C663.671 427.348 664.487 426.472 665.543 425.848C666.623 425.224 667.931 424.912 669.467 424.912V428.296H668.603C664.931 428.296 663.095 430.288 663.095 434.272V445H659.819V425.272H663.095V428.476ZM691.249 434.38C691.249 435.004 691.213 435.664 691.141 436.36H675.373C675.493 438.304 676.153 439.828 677.353 440.932C678.577 442.012 680.053 442.552 681.781 442.552C683.197 442.552 684.373 442.228 685.309 441.58C686.269 440.908 686.941 440.02 687.325 438.916H690.853C690.325 440.812 689.269 442.36 687.685 443.56C686.101 444.736 684.133 445.324 681.781 445.324C679.909 445.324 678.229 444.904 676.741 444.064C675.277 443.224 674.125 442.036 673.285 440.5C672.445 438.94 672.025 437.14 672.025 435.1C672.025 433.06 672.433 431.272 673.249 429.736C674.065 428.2 675.205 427.024 676.669 426.208C678.157 425.368 679.861 424.948 681.781 424.948C683.653 424.948 685.309 425.356 686.749 426.172C688.189 426.988 689.293 428.116 690.061 429.556C690.853 430.972 691.249 432.58 691.249 434.38ZM687.865 433.696C687.865 432.448 687.589 431.38 687.037 430.492C686.485 429.58 685.729 428.896 684.769 428.44C683.833 427.96 682.789 427.72 681.637 427.72C679.981 427.72 678.565 428.248 677.389 429.304C676.237 430.36 675.577 431.824 675.409 433.696H687.865ZM702.557 445.324C701.045 445.324 699.689 445.072 698.489 444.568C697.289 444.04 696.341 443.32 695.645 442.408C694.949 441.472 694.565 440.404 694.493 439.204H697.877C697.973 440.188 698.429 440.992 699.245 441.616C700.085 442.24 701.177 442.552 702.521 442.552C703.769 442.552 704.753 442.276 705.473 441.724C706.193 441.172 706.553 440.476 706.553 439.636C706.553 438.772 706.169 438.136 705.401 437.728C704.633 437.296 703.445 436.876 701.837 436.468C700.373 436.084 699.173 435.7 698.237 435.316C697.325 434.908 696.533 434.32 695.861 433.552C695.213 432.76 694.889 431.728 694.889 430.456C694.889 429.448 695.189 428.524 695.789 427.684C696.389 426.844 697.241 426.184 698.345 425.704C699.449 425.2 700.709 424.948 702.125 424.948C704.309 424.948 706.073 425.5 707.417 426.604C708.761 427.708 709.481 429.22 709.577 431.14H706.301C706.229 430.108 705.809 429.28 705.041 428.656C704.297 428.032 703.289 427.72 702.017 427.72C700.841 427.72 699.905 427.972 699.209 428.476C698.513 428.98 698.165 429.64 698.165 430.456C698.165 431.104 698.369 431.644 698.777 432.076C699.209 432.484 699.737 432.82 700.361 433.084C701.009 433.324 701.897 433.6 703.025 433.912C704.441 434.296 705.593 434.68 706.481 435.064C707.369 435.424 708.125 435.976 708.749 436.72C709.397 437.464 709.733 438.436 709.757 439.636C709.757 440.716 709.457 441.688 708.857 442.552C708.257 443.416 707.405 444.1 706.301 444.604C705.221 445.084 703.973 445.324 702.557 445.324ZM718.377 427.972V439.6C718.377 440.56 718.581 441.244 718.989 441.652C719.397 442.036 720.105 442.228 721.113 442.228H723.525V445H720.573C718.749 445 717.381 444.58 716.469 443.74C715.557 442.9 715.101 441.52 715.101 439.6V427.972H712.545V425.272H715.101V420.304H718.377V425.272H723.525V427.972H718.377ZM740.368 428.476C740.944 427.348 741.76 426.472 742.816 425.848C743.896 425.224 745.204 424.912 746.74 424.912V428.296H745.876C742.204 428.296 740.368 430.288 740.368 434.272V445H737.092V425.272H740.368V428.476ZM768.522 434.38C768.522 435.004 768.486 435.664 768.414 436.36H752.646C752.766 438.304 753.426 439.828 754.626 440.932C755.85 442.012 757.326 442.552 759.054 442.552C760.47 442.552 761.646 442.228 762.582 441.58C763.542 440.908 764.214 440.02 764.598 438.916H768.126C767.598 440.812 766.542 442.36 764.958 443.56C763.374 444.736 761.406 445.324 759.054 445.324C757.182 445.324 755.502 444.904 754.014 444.064C752.55 443.224 751.398 442.036 750.558 440.5C749.718 438.94 749.298 437.14 749.298 435.1C749.298 433.06 749.706 431.272 750.522 429.736C751.338 428.2 752.478 427.024 753.942 426.208C755.43 425.368 757.134 424.948 759.054 424.948C760.926 424.948 762.582 425.356 764.022 426.172C765.462 426.988 766.566 428.116 767.334 429.556C768.126 430.972 768.522 432.58 768.522 434.38ZM765.138 433.696C765.138 432.448 764.862 431.38 764.31 430.492C763.758 429.58 763.002 428.896 762.042 428.44C761.106 427.96 760.062 427.72 758.91 427.72C757.254 427.72 755.838 428.248 754.662 429.304C753.51 430.36 752.85 431.824 752.682 433.696H765.138ZM776.122 418.36V445H772.846V418.36H776.122ZM783.398 422.068C782.774 422.068 782.246 421.852 781.814 421.42C781.382 420.988 781.166 420.46 781.166 419.836C781.166 419.212 781.382 418.684 781.814 418.252C782.246 417.82 782.774 417.604 783.398 417.604C783.998 417.604 784.502 417.82 784.91 418.252C785.342 418.684 785.558 419.212 785.558 419.836C785.558 420.46 785.342 420.988 784.91 421.42C784.502 421.852 783.998 422.068 783.398 422.068ZM784.982 425.272V445H781.706V425.272H784.982ZM808.565 434.38C808.565 435.004 808.529 435.664 808.457 436.36H792.689C792.809 438.304 793.469 439.828 794.669 440.932C795.893 442.012 797.369 442.552 799.097 442.552C800.513 442.552 801.689 442.228 802.625 441.58C803.585 440.908 804.257 440.02 804.641 438.916H808.169C807.641 440.812 806.585 442.36 805.001 443.56C803.417 444.736 801.449 445.324 799.097 445.324C797.225 445.324 795.545 444.904 794.057 444.064C792.593 443.224 791.441 442.036 790.601 440.5C789.761 438.94 789.341 437.14 789.341 435.1C789.341 433.06 789.749 431.272 790.565 429.736C791.381 428.2 792.521 427.024 793.985 426.208C795.473 425.368 797.177 424.948 799.097 424.948C800.969 424.948 802.625 425.356 804.065 426.172C805.505 426.988 806.609 428.116 807.377 429.556C808.169 430.972 808.565 432.58 808.565 434.38ZM805.181 433.696C805.181 432.448 804.905 431.38 804.353 430.492C803.801 429.58 803.045 428.896 802.085 428.44C801.149 427.96 800.105 427.72 798.953 427.72C797.297 427.72 795.881 428.248 794.705 429.304C793.553 430.36 792.893 431.824 792.725 433.696H805.181ZM820.917 427.972H816.777V445H813.501V427.972H810.945V425.272H813.501V423.868C813.501 421.66 814.065 420.052 815.193 419.044C816.345 418.012 818.181 417.496 820.701 417.496V420.232C819.261 420.232 818.241 420.52 817.641 421.096C817.065 421.648 816.777 422.572 816.777 423.868V425.272H820.917V427.972ZM833.111 435.1C833.111 433.06 833.519 431.284 834.335 429.772C835.151 428.236 836.279 427.048 837.719 426.208C839.183 425.368 840.851 424.948 842.723 424.948C845.147 424.948 847.139 425.536 848.699 426.712C850.283 427.888 851.327 429.52 851.831 431.608H848.303C847.967 430.408 847.307 429.46 846.323 428.764C845.363 428.068 844.163 427.72 842.723 427.72C840.851 427.72 839.339 428.368 838.187 429.664C837.035 430.936 836.459 432.748 836.459 435.1C836.459 437.476 837.035 439.312 838.187 440.608C839.339 441.904 840.851 442.552 842.723 442.552C844.163 442.552 845.363 442.216 846.323 441.544C847.283 440.872 847.943 439.912 848.303 438.664H851.831C851.303 440.68 850.247 442.3 848.663 443.524C847.079 444.724 845.099 445.324 842.723 445.324C840.851 445.324 839.183 444.904 837.719 444.064C836.279 443.224 835.151 442.036 834.335 440.5C833.519 438.964 833.111 437.164 833.111 435.1ZM874.202 434.38C874.202 435.004 874.166 435.664 874.094 436.36H858.326C858.446 438.304 859.106 439.828 860.306 440.932C861.53 442.012 863.006 442.552 864.734 442.552C866.15 442.552 867.326 442.228 868.262 441.58C869.222 440.908 869.894 440.02 870.278 438.916H873.806C873.278 440.812 872.222 442.36 870.638 443.56C869.054 444.736 867.086 445.324 864.734 445.324C862.862 445.324 861.182 444.904 859.694 444.064C858.23 443.224 857.078 442.036 856.238 440.5C855.398 438.94 854.978 437.14 854.978 435.1C854.978 433.06 855.386 431.272 856.202 429.736C857.018 428.2 858.158 427.024 859.622 426.208C861.11 425.368 862.814 424.948 864.734 424.948C866.606 424.948 868.262 425.356 869.702 426.172C871.142 426.988 872.246 428.116 873.014 429.556C873.806 430.972 874.202 432.58 874.202 434.38ZM870.818 433.696C870.818 432.448 870.542 431.38 869.99 430.492C869.438 429.58 868.682 428.896 867.722 428.44C866.786 427.96 865.742 427.72 864.59 427.72C862.934 427.72 861.518 428.248 860.342 429.304C859.19 430.36 858.53 431.824 858.362 433.696H870.818ZM888.138 424.912C890.538 424.912 892.482 425.644 893.97 427.108C895.458 428.548 896.202 430.636 896.202 433.372V445H892.962V433.84C892.962 431.872 892.47 430.372 891.486 429.34C890.502 428.284 889.158 427.756 887.454 427.756C885.726 427.756 884.346 428.296 883.314 429.376C882.306 430.456 881.802 432.028 881.802 434.092V445H878.526V425.272H881.802V428.08C882.45 427.072 883.326 426.292 884.43 425.74C885.558 425.188 886.794 424.912 888.138 424.912ZM905.549 427.972V439.6C905.549 440.56 905.753 441.244 906.161 441.652C906.569 442.036 907.277 442.228 908.285 442.228H910.697V445H907.745C905.921 445 904.553 444.58 903.641 443.74C902.729 442.9 902.273 441.52 902.273 439.6V427.972H899.717V425.272H902.273V420.304H905.549V425.272H910.697V427.972H905.549ZM932.667 434.38C932.667 435.004 932.631 435.664 932.559 436.36H916.791C916.911 438.304 917.571 439.828 918.771 440.932C919.995 442.012 921.471 442.552 923.199 442.552C924.615 442.552 925.791 442.228 926.727 441.58C927.687 440.908 928.359 440.02 928.743 438.916H932.271C931.743 440.812 930.687 442.36 929.103 443.56C927.519 444.736 925.551 445.324 923.199 445.324C921.327 445.324 919.647 444.904 918.159 444.064C916.695 443.224 915.543 442.036 914.703 440.5C913.863 438.94 913.443 437.14 913.443 435.1C913.443 433.06 913.851 431.272 914.667 429.736C915.483 428.2 916.623 427.024 918.087 426.208C919.575 425.368 921.279 424.948 923.199 424.948C925.071 424.948 926.727 425.356 928.167 426.172C929.607 426.988 930.711 428.116 931.479 429.556C932.271 430.972 932.667 432.58 932.667 434.38ZM929.283 433.696C929.283 432.448 929.007 431.38 928.455 430.492C927.903 429.58 927.147 428.896 926.187 428.44C925.251 427.96 924.207 427.72 923.055 427.72C921.399 427.72 919.983 428.248 918.807 429.304C917.655 430.36 916.995 431.824 916.827 433.696H929.283ZM940.267 428.476C940.843 427.348 941.659 426.472 942.715 425.848C943.795 425.224 945.103 424.912 946.639 424.912V428.296H945.775C942.103 428.296 940.267 430.288 940.267 434.272V445H936.991V425.272H940.267V428.476Z" fill="#FFF069" fill-opacity="0.8"/>
<g clip-path="url(#clip0)">
<path d="M247 461C297.258 461 338 420.258 338 370C338 319.742 297.258 279 247 279C196.742 279 156 319.742 156 370C156 420.258 196.742 461 247 461Z" fill="#F0F0F0"/>
<path d="M247 279V370L182.653 434.347C199.121 450.814 221.871 461 247 461C297.258 461 338 420.258 338 370C338 319.742 247 279 247 279Z" fill="#D80027"/>
<path d="M247 279C221.871 279 199.121 289.186 182.653 305.653C204.98 327.98 212.906 335.906 247 370H338C338 319.742 297.258 279 247 279Z" fill="#0052B4"/>
<path d="M218.31 370L207.197 364.772L213.115 354.009L201.047 356.318L199.518 344.126L191.112 353.093L182.706 344.126L181.176 356.318L169.109 354.009L175.027 364.772L163.913 370L175.027 375.227L169.109 385.991L181.177 383.682L182.706 395.873L191.112 386.907L199.518 395.873L201.047 383.682L213.115 385.991L207.197 375.228L218.31 370Z" fill="#FFDA44"/>
<path d="M180.269 314.609L183.967 319.778L190.026 317.859L186.252 322.974L189.95 328.143L183.919 326.134L180.145 331.249L180.192 324.893L174.162 322.884L180.222 320.964L180.269 314.609Z" fill="#FFDA44"/>
<path d="M180.269 408.751L183.967 413.921L190.026 412.001L186.252 417.116L189.95 422.286L183.919 420.277L180.145 425.391L180.192 419.035L174.162 417.026L180.222 415.107L180.269 408.751Z" fill="#FFDA44"/>
<path d="M233.018 361.68L229.32 366.85L223.261 364.93L227.035 370.045L223.337 375.215L229.368 373.206L233.142 378.32L233.094 371.964L239.125 369.955L233.065 368.036L233.018 361.68Z" fill="#FFDA44"/>
</g>
<defs>
<clipPath id="clip0">
<rect width="182" height="182" fill="white" transform="translate(156 279)"/>
</clipPath>
</defs>
</svg>
