<svg width="1188" height="726" viewBox="0 0 1188 726" fill="none" xmlns="http://www.w3.org/2000/svg">
<rect width="1188" height="726" fill="url(#paint0_linear)"/>
<path d="M413.576 345.248C417.544 346.144 420.68 348.128 422.984 351.2C425.352 354.208 426.536 357.664 426.536 361.568C426.536 367.328 424.552 371.84 420.584 375.104C416.616 378.368 411.048 380 403.88 380H370.376V312.32H402.824C409.736 312.32 415.144 313.856 419.048 316.928C423.016 320 425 324.32 425 329.888C425 333.856 423.944 337.184 421.832 339.872C419.784 342.496 417.032 344.288 413.576 345.248ZM389.192 339.2H398.696C403.432 339.2 405.8 337.248 405.8 333.344C405.8 329.312 403.432 327.296 398.696 327.296H389.192V339.2ZM400.136 364.832C404.872 364.832 407.24 362.848 407.24 358.88C407.24 356.832 406.6 355.264 405.32 354.176C404.104 353.088 402.344 352.544 400.04 352.544H389.192V364.832H400.136ZM431.71 353.024C431.71 347.456 432.702 342.592 434.686 338.432C436.734 334.272 439.486 331.072 442.942 328.832C446.462 326.592 450.366 325.472 454.654 325.472C458.366 325.472 461.566 326.208 464.254 327.68C466.942 329.152 469.022 331.136 470.494 333.632V326.144H489.31V380H470.494V372.512C469.022 375.008 466.91 376.992 464.158 378.464C461.47 379.936 458.302 380.672 454.654 380.672C450.366 380.672 446.462 379.552 442.942 377.312C439.486 375.072 436.734 371.872 434.686 367.712C432.702 363.488 431.71 358.592 431.71 353.024ZM470.494 353.024C470.494 349.568 469.534 346.848 467.614 344.864C465.758 342.88 463.454 341.888 460.702 341.888C457.886 341.888 455.55 342.88 453.694 344.864C451.838 346.784 450.91 349.504 450.91 353.024C450.91 356.48 451.838 359.232 453.694 361.28C455.55 363.264 457.886 364.256 460.702 364.256C463.454 364.256 465.758 363.264 467.614 361.28C469.534 359.296 470.494 356.544 470.494 353.024ZM558.016 326.144L523.84 405.632H503.392L516.256 377.696L494.176 326.144H515.104L526.432 356.672L537.376 326.144H558.016ZM559.867 353.024C559.867 347.456 560.859 342.592 562.843 338.432C564.891 334.272 567.643 331.072 571.099 328.832C574.619 326.592 578.523 325.472 582.811 325.472C586.523 325.472 589.723 326.208 592.411 327.68C595.099 329.152 597.179 331.136 598.651 333.632V326.144H617.467V380H598.651V372.512C597.179 375.008 595.067 376.992 592.315 378.464C589.627 379.936 586.459 380.672 582.811 380.672C578.523 380.672 574.619 379.552 571.099 377.312C567.643 375.072 564.891 371.872 562.843 367.712C560.859 363.488 559.867 358.592 559.867 353.024ZM598.651 353.024C598.651 349.568 597.691 346.848 595.771 344.864C593.915 342.88 591.611 341.888 588.859 341.888C586.043 341.888 583.707 342.88 581.851 344.864C579.995 346.784 579.067 349.504 579.067 353.024C579.067 356.48 579.995 359.232 581.851 361.28C583.707 363.264 586.043 364.256 588.859 364.256C591.611 364.256 593.915 363.264 595.771 361.28C597.691 359.296 598.651 356.544 598.651 353.024ZM663.421 325.664C669.629 325.664 674.557 327.744 678.205 331.904C681.853 336 683.677 341.568 683.677 348.608V380H664.861V351.104C664.861 348.032 664.061 345.632 662.461 343.904C660.861 342.112 658.717 341.216 656.029 341.216C653.213 341.216 651.005 342.112 649.405 343.904C647.805 345.632 647.005 348.032 647.005 351.104V380H628.189V326.144H647.005V333.824C648.669 331.392 650.909 329.44 653.725 327.968C656.541 326.432 659.773 325.664 663.421 325.664ZM703.505 321.152C700.177 321.152 697.489 320.256 695.441 318.464C693.457 316.608 692.465 314.304 692.465 311.552C692.465 308.736 693.457 306.4 695.441 304.544C697.489 302.688 700.177 301.76 703.505 301.76C706.769 301.76 709.393 302.688 711.377 304.544C713.425 306.4 714.449 308.736 714.449 311.552C714.449 314.304 713.425 316.608 711.377 318.464C709.393 320.256 706.769 321.152 703.505 321.152ZM712.817 326.144V380H694.001V326.144H712.817ZM758.956 325.664C765.1 325.664 769.964 327.744 773.548 331.904C777.196 336 779.02 341.568 779.02 348.608V380H760.204V351.104C760.204 348.032 759.404 345.632 757.804 343.904C756.204 342.112 754.06 341.216 751.372 341.216C748.556 341.216 746.348 342.112 744.748 343.904C743.148 345.632 742.348 348.032 742.348 351.104V380H723.532V308.96H742.348V333.824C744.012 331.392 746.252 329.44 749.068 327.968C751.948 326.432 755.244 325.664 758.956 325.664ZM786.273 353.024C786.273 347.456 787.265 342.592 789.249 338.432C791.297 334.272 794.049 331.072 797.505 328.832C801.025 326.592 804.929 325.472 809.217 325.472C812.929 325.472 816.129 326.208 818.817 327.68C821.505 329.152 823.585 331.136 825.057 333.632V326.144H843.873V380H825.057V372.512C823.585 375.008 821.473 376.992 818.721 378.464C816.033 379.936 812.865 380.672 809.217 380.672C804.929 380.672 801.025 379.552 797.505 377.312C794.049 375.072 791.297 371.872 789.249 367.712C787.265 363.488 786.273 358.592 786.273 353.024ZM825.057 353.024C825.057 349.568 824.097 346.848 822.177 344.864C820.321 342.88 818.017 341.888 815.265 341.888C812.449 341.888 810.113 342.88 808.257 344.864C806.401 346.784 805.473 349.504 805.473 353.024C805.473 356.48 806.401 359.232 808.257 361.28C810.113 363.264 812.449 364.256 815.265 364.256C818.017 364.256 820.321 363.264 822.177 361.28C824.097 359.296 825.057 356.544 825.057 353.024ZM889.827 325.664C896.035 325.664 900.963 327.744 904.611 331.904C908.259 336 910.083 341.568 910.083 348.608V380H891.267V351.104C891.267 348.032 890.467 345.632 888.867 343.904C887.267 342.112 885.123 341.216 882.435 341.216C879.619 341.216 877.411 342.112 875.811 343.904C874.211 345.632 873.411 348.032 873.411 351.104V380H854.595V326.144H873.411V333.824C875.075 331.392 877.315 329.44 880.131 327.968C882.947 326.432 886.179 325.664 889.827 325.664ZM973.879 334.88C973.879 338.976 972.919 342.72 970.999 346.112C969.143 349.44 966.295 352.128 962.455 354.176C958.679 356.16 954.039 357.152 948.535 357.152H939.223V380H920.407V312.32H948.535C953.975 312.32 958.583 313.28 962.359 315.2C966.199 317.12 969.079 319.776 970.999 323.168C972.919 326.56 973.879 330.464 973.879 334.88ZM946.711 342.176C952.023 342.176 954.679 339.744 954.679 334.88C954.679 329.952 952.023 327.488 946.711 327.488H939.223V342.176H946.711ZM1042.01 312.32V380H1023.2V352.832H1000.25V380H981.439V312.32H1000.25V337.76H1023.2V312.32H1042.01Z" fill="white"/>
<path d="M383.896 411.836V413.924H372.808V423.32H382.168V425.408H372.808V437H370.288V411.836H383.896ZM389.302 413.636C388.798 413.636 388.366 413.456 388.006 413.096C387.646 412.736 387.466 412.292 387.466 411.764C387.466 411.236 387.646 410.804 388.006 410.468C388.366 410.108 388.798 409.928 389.302 409.928C389.806 409.928 390.238 410.108 390.598 410.468C390.958 410.804 391.138 411.236 391.138 411.764C391.138 412.292 390.958 412.736 390.598 413.096C390.238 413.456 389.806 413.636 389.302 413.636ZM390.562 417.344V437H388.042V417.344H390.562ZM405.485 416.984C407.837 416.984 409.757 417.716 411.245 419.18C412.733 420.62 413.477 422.72 413.477 425.48V437H410.993V425.768C410.993 423.632 410.453 422 409.373 420.872C408.317 419.744 406.865 419.18 405.017 419.18C403.121 419.18 401.609 419.78 400.481 420.98C399.353 422.18 398.789 423.944 398.789 426.272V437H396.269V417.344H398.789V420.692C399.413 419.492 400.313 418.58 401.489 417.956C402.665 417.308 403.997 416.984 405.485 416.984ZM417.898 427.136C417.898 425.12 418.306 423.356 419.122 421.844C419.938 420.308 421.054 419.132 422.47 418.316C423.91 417.476 425.53 417.056 427.33 417.056C429.058 417.056 430.618 417.476 432.01 418.316C433.402 419.156 434.422 420.248 435.07 421.592V410.36H437.59V437H435.07V432.608C434.47 433.976 433.486 435.104 432.118 435.992C430.75 436.856 429.142 437.288 427.294 437.288C425.494 437.288 423.874 436.868 422.434 436.028C421.018 435.188 419.902 434 419.086 432.464C418.294 430.928 417.898 429.152 417.898 427.136ZM435.07 427.172C435.07 425.588 434.746 424.196 434.098 422.996C433.45 421.796 432.562 420.872 431.434 420.224C430.33 419.576 429.106 419.252 427.762 419.252C426.37 419.252 425.122 419.564 424.018 420.188C422.914 420.812 422.038 421.724 421.39 422.924C420.766 424.1 420.454 425.504 420.454 427.136C420.454 428.744 420.766 430.16 421.39 431.384C422.038 432.584 422.914 433.508 424.018 434.156C425.122 434.78 426.37 435.092 427.762 435.092C429.106 435.092 430.33 434.768 431.434 434.12C432.562 433.472 433.45 432.548 434.098 431.348C434.746 430.148 435.07 428.756 435.07 427.172ZM456.498 419.468V431.672C456.498 432.872 456.726 433.7 457.182 434.156C457.638 434.612 458.442 434.84 459.594 434.84H461.898V437H459.198C457.422 437 456.102 436.592 455.238 435.776C454.374 434.936 453.942 433.568 453.942 431.672V419.468H451.206V417.344H453.942V412.412H456.498V417.344H461.898V419.468H456.498ZM475.414 416.984C476.902 416.984 478.234 417.296 479.41 417.92C480.61 418.544 481.546 419.504 482.218 420.8C482.914 422.072 483.262 423.632 483.262 425.48V437H480.778V425.768C480.778 423.632 480.238 422 479.158 420.872C478.102 419.744 476.65 419.18 474.802 419.18C472.906 419.18 471.394 419.78 470.266 420.98C469.138 422.18 468.574 423.944 468.574 426.272V437H466.054V410.36H468.574V420.692C469.198 419.516 470.11 418.604 471.31 417.956C472.534 417.308 473.902 416.984 475.414 416.984ZM506.619 426.164C506.619 427.028 506.595 427.688 506.547 428.144H490.239C490.311 429.632 490.671 430.904 491.319 431.96C491.967 433.016 492.819 433.82 493.875 434.372C494.931 434.9 496.083 435.164 497.331 435.164C498.963 435.164 500.331 434.768 501.435 433.976C502.563 433.184 503.307 432.116 503.667 430.772H506.331C505.851 432.692 504.819 434.264 503.235 435.488C501.675 436.688 499.707 437.288 497.331 437.288C495.483 437.288 493.827 436.88 492.363 436.064C490.899 435.224 489.747 434.048 488.907 432.536C488.091 431 487.683 429.212 487.683 427.172C487.683 425.132 488.091 423.344 488.907 421.808C489.723 420.272 490.863 419.096 492.327 418.28C493.791 417.464 495.459 417.056 497.331 417.056C499.203 417.056 500.835 417.464 502.227 418.28C503.643 419.096 504.723 420.2 505.467 421.592C506.235 422.96 506.619 424.484 506.619 426.164ZM504.063 426.092C504.087 424.628 503.787 423.38 503.163 422.348C502.563 421.316 501.735 420.536 500.679 420.008C499.623 419.48 498.471 419.216 497.223 419.216C495.351 419.216 493.755 419.816 492.435 421.016C491.115 422.216 490.383 423.908 490.239 426.092H504.063ZM530.325 416.984C532.677 416.984 534.597 417.716 536.085 419.18C537.573 420.62 538.317 422.72 538.317 425.48V437H535.833V425.768C535.833 423.632 535.293 422 534.213 420.872C533.157 419.744 531.705 419.18 529.857 419.18C527.961 419.18 526.449 419.78 525.321 420.98C524.193 422.18 523.629 423.944 523.629 426.272V437H521.109V417.344H523.629V420.692C524.253 419.492 525.153 418.58 526.329 417.956C527.505 417.308 528.837 416.984 530.325 416.984ZM561.674 426.164C561.674 427.028 561.65 427.688 561.602 428.144H545.294C545.366 429.632 545.726 430.904 546.374 431.96C547.022 433.016 547.874 433.82 548.93 434.372C549.986 434.9 551.138 435.164 552.386 435.164C554.018 435.164 555.386 434.768 556.49 433.976C557.618 433.184 558.362 432.116 558.722 430.772H561.386C560.906 432.692 559.874 434.264 558.29 435.488C556.73 436.688 554.762 437.288 552.386 437.288C550.538 437.288 548.882 436.88 547.418 436.064C545.954 435.224 544.802 434.048 543.962 432.536C543.146 431 542.738 429.212 542.738 427.172C542.738 425.132 543.146 423.344 543.962 421.808C544.778 420.272 545.918 419.096 547.382 418.28C548.846 417.464 550.514 417.056 552.386 417.056C554.258 417.056 555.89 417.464 557.282 418.28C558.698 419.096 559.778 420.2 560.522 421.592C561.29 422.96 561.674 424.484 561.674 426.164ZM559.118 426.092C559.142 424.628 558.842 423.38 558.218 422.348C557.618 421.316 556.79 420.536 555.734 420.008C554.678 419.48 553.526 419.216 552.278 419.216C550.406 419.216 548.81 419.816 547.49 421.016C546.17 422.216 545.438 423.908 545.294 426.092H559.118ZM565.132 427.136C565.132 425.12 565.528 423.356 566.32 421.844C567.136 420.308 568.252 419.132 569.668 418.316C571.108 417.476 572.728 417.056 574.528 417.056C576.4 417.056 578.008 417.488 579.352 418.352C580.72 419.216 581.704 420.32 582.304 421.664V417.344H584.824V437H582.304V432.644C581.68 433.988 580.684 435.104 579.316 435.992C577.972 436.856 576.364 437.288 574.492 437.288C572.716 437.288 571.108 436.868 569.668 436.028C568.252 435.188 567.136 434 566.32 432.464C565.528 430.928 565.132 429.152 565.132 427.136ZM582.304 427.172C582.304 425.588 581.98 424.196 581.332 422.996C580.684 421.796 579.796 420.872 578.668 420.224C577.564 419.576 576.34 419.252 574.996 419.252C573.604 419.252 572.356 419.564 571.252 420.188C570.148 420.812 569.272 421.724 568.624 422.924C568 424.1 567.688 425.504 567.688 427.136C567.688 428.744 568 430.16 568.624 431.384C569.272 432.584 570.148 433.508 571.252 434.156C572.356 434.78 573.604 435.092 574.996 435.092C576.34 435.092 577.564 434.768 578.668 434.12C579.796 433.472 580.684 432.548 581.332 431.348C581.98 430.148 582.304 428.756 582.304 427.172ZM593.097 420.836C593.649 419.612 594.489 418.664 595.617 417.992C596.769 417.32 598.173 416.984 599.829 416.984V419.612H599.145C597.321 419.612 595.857 420.104 594.753 421.088C593.649 422.072 593.097 423.716 593.097 426.02V437H590.577V417.344H593.097V420.836ZM621.404 426.164C621.404 427.028 621.38 427.688 621.332 428.144H605.024C605.096 429.632 605.456 430.904 606.104 431.96C606.752 433.016 607.604 433.82 608.66 434.372C609.716 434.9 610.868 435.164 612.116 435.164C613.748 435.164 615.116 434.768 616.22 433.976C617.348 433.184 618.092 432.116 618.452 430.772H621.116C620.636 432.692 619.604 434.264 618.02 435.488C616.46 436.688 614.492 437.288 612.116 437.288C610.268 437.288 608.612 436.88 607.148 436.064C605.684 435.224 604.532 434.048 603.692 432.536C602.876 431 602.468 429.212 602.468 427.172C602.468 425.132 602.876 423.344 603.692 421.808C604.508 420.272 605.648 419.096 607.112 418.28C608.576 417.464 610.244 417.056 612.116 417.056C613.988 417.056 615.62 417.464 617.012 418.28C618.428 419.096 619.508 420.2 620.252 421.592C621.02 422.96 621.404 424.484 621.404 426.164ZM618.848 426.092C618.872 424.628 618.572 423.38 617.948 422.348C617.348 421.316 616.52 420.536 615.464 420.008C614.408 419.48 613.256 419.216 612.008 419.216C610.136 419.216 608.54 419.816 607.22 421.016C605.9 422.216 605.168 423.908 605.024 426.092H618.848ZM632.783 437.288C630.527 437.288 628.679 436.772 627.239 435.74C625.823 434.684 625.031 433.256 624.863 431.456H627.455C627.575 432.56 628.091 433.46 629.003 434.156C629.939 434.828 631.187 435.164 632.747 435.164C634.115 435.164 635.183 434.84 635.951 434.192C636.743 433.544 637.139 432.74 637.139 431.78C637.139 431.108 636.923 430.556 636.491 430.124C636.059 429.692 635.507 429.356 634.835 429.116C634.187 428.852 633.299 428.576 632.171 428.288C630.707 427.904 629.519 427.52 628.607 427.136C627.695 426.752 626.915 426.188 626.267 425.444C625.643 424.676 625.331 423.656 625.331 422.384C625.331 421.424 625.619 420.536 626.195 419.72C626.771 418.904 627.587 418.256 628.643 417.776C629.699 417.296 630.899 417.056 632.243 417.056C634.355 417.056 636.059 417.596 637.355 418.676C638.651 419.732 639.347 421.196 639.443 423.068H636.923C636.851 421.916 636.395 420.992 635.555 420.296C634.739 419.576 633.611 419.216 632.171 419.216C630.899 419.216 629.867 419.516 629.075 420.116C628.283 420.716 627.887 421.46 627.887 422.348C627.887 423.116 628.115 423.752 628.571 424.256C629.051 424.736 629.639 425.12 630.335 425.408C631.031 425.672 631.967 425.972 633.143 426.308C634.559 426.692 635.687 427.064 636.527 427.424C637.367 427.784 638.087 428.312 638.687 429.008C639.287 429.704 639.599 430.628 639.623 431.78C639.623 432.836 639.335 433.784 638.759 434.624C638.183 435.44 637.379 436.088 636.347 436.568C635.315 437.048 634.127 437.288 632.783 437.288ZM647.642 419.468V431.672C647.642 432.872 647.87 433.7 648.326 434.156C648.782 434.612 649.586 434.84 650.738 434.84H653.042V437H650.342C648.566 437 647.246 436.592 646.382 435.776C645.518 434.936 645.086 433.568 645.086 431.672V419.468H642.35V417.344H645.086V412.412H647.642V417.344H653.042V419.468H647.642ZM669.597 420.836C670.149 419.612 670.989 418.664 672.117 417.992C673.269 417.32 674.673 416.984 676.329 416.984V419.612H675.645C673.821 419.612 672.357 420.104 671.253 421.088C670.149 422.072 669.597 423.716 669.597 426.02V437H667.077V417.344H669.597V420.836ZM697.904 426.164C697.904 427.028 697.88 427.688 697.832 428.144H681.524C681.596 429.632 681.956 430.904 682.604 431.96C683.252 433.016 684.104 433.82 685.16 434.372C686.216 434.9 687.368 435.164 688.616 435.164C690.248 435.164 691.616 434.768 692.72 433.976C693.848 433.184 694.592 432.116 694.952 430.772H697.616C697.136 432.692 696.104 434.264 694.52 435.488C692.96 436.688 690.992 437.288 688.616 437.288C686.768 437.288 685.112 436.88 683.648 436.064C682.184 435.224 681.032 434.048 680.192 432.536C679.376 431 678.968 429.212 678.968 427.172C678.968 425.132 679.376 423.344 680.192 421.808C681.008 420.272 682.148 419.096 683.612 418.28C685.076 417.464 686.744 417.056 688.616 417.056C690.488 417.056 692.12 417.464 693.512 418.28C694.928 419.096 696.008 420.2 696.752 421.592C697.52 422.96 697.904 424.484 697.904 426.164ZM695.348 426.092C695.372 424.628 695.072 423.38 694.448 422.348C693.848 421.316 693.02 420.536 691.964 420.008C690.908 419.48 689.756 419.216 688.508 419.216C686.636 419.216 685.04 419.816 683.72 421.016C682.4 422.216 681.668 423.908 681.524 426.092H695.348ZM705.035 410.36V437H702.515V410.36H705.035ZM712.001 413.636C711.497 413.636 711.065 413.456 710.705 413.096C710.345 412.736 710.165 412.292 710.165 411.764C710.165 411.236 710.345 410.804 710.705 410.468C711.065 410.108 711.497 409.928 712.001 409.928C712.505 409.928 712.937 410.108 713.297 410.468C713.657 410.804 713.837 411.236 713.837 411.764C713.837 412.292 713.657 412.736 713.297 413.096C712.937 413.456 712.505 413.636 712.001 413.636ZM713.261 417.344V437H710.741V417.344H713.261ZM736.752 426.164C736.752 427.028 736.728 427.688 736.68 428.144H720.372C720.444 429.632 720.804 430.904 721.452 431.96C722.1 433.016 722.952 433.82 724.008 434.372C725.064 434.9 726.216 435.164 727.464 435.164C729.096 435.164 730.464 434.768 731.568 433.976C732.696 433.184 733.44 432.116 733.8 430.772H736.464C735.984 432.692 734.952 434.264 733.368 435.488C731.808 436.688 729.84 437.288 727.464 437.288C725.616 437.288 723.96 436.88 722.496 436.064C721.032 435.224 719.88 434.048 719.04 432.536C718.224 431 717.816 429.212 717.816 427.172C717.816 425.132 718.224 423.344 719.04 421.808C719.856 420.272 720.996 419.096 722.46 418.28C723.924 417.464 725.592 417.056 727.464 417.056C729.336 417.056 730.968 417.464 732.36 418.28C733.776 419.096 734.856 420.2 735.6 421.592C736.368 422.96 736.752 424.484 736.752 426.164ZM734.196 426.092C734.22 424.628 733.92 423.38 733.296 422.348C732.696 421.316 731.868 420.536 730.812 420.008C729.756 419.48 728.604 419.216 727.356 419.216C725.484 419.216 723.888 419.816 722.568 421.016C721.248 422.216 720.516 423.908 720.372 426.092H734.196ZM749.102 419.468H744.53V437H742.01V419.468H739.274V417.344H742.01V415.976C742.01 413.84 742.55 412.268 743.63 411.26C744.734 410.252 746.51 409.748 748.958 409.748V411.908C747.326 411.908 746.174 412.22 745.502 412.844C744.854 413.468 744.53 414.512 744.53 415.976V417.344H749.102V419.468ZM761.796 427.172C761.796 425.132 762.204 423.356 763.02 421.844C763.836 420.308 764.964 419.132 766.404 418.316C767.844 417.476 769.488 417.056 771.336 417.056C773.76 417.056 775.752 417.656 777.312 418.856C778.896 420.056 779.916 421.688 780.372 423.752H777.672C777.336 422.336 776.604 421.232 775.476 420.44C774.372 419.624 772.992 419.216 771.336 419.216C770.016 419.216 768.828 419.516 767.772 420.116C766.716 420.716 765.876 421.616 765.252 422.816C764.652 423.992 764.352 425.444 764.352 427.172C764.352 428.9 764.652 430.364 765.252 431.564C765.876 432.764 766.716 433.664 767.772 434.264C768.828 434.864 770.016 435.164 771.336 435.164C772.992 435.164 774.372 434.768 775.476 433.976C776.604 433.16 777.336 432.032 777.672 430.592H780.372C779.916 432.608 778.896 434.228 777.312 435.452C775.728 436.676 773.736 437.288 771.336 437.288C769.488 437.288 767.844 436.88 766.404 436.064C764.964 435.224 763.836 434.048 763.02 432.536C762.204 431 761.796 429.212 761.796 427.172ZM802.81 426.164C802.81 427.028 802.786 427.688 802.738 428.144H786.43C786.502 429.632 786.862 430.904 787.51 431.96C788.158 433.016 789.01 433.82 790.066 434.372C791.122 434.9 792.274 435.164 793.522 435.164C795.154 435.164 796.522 434.768 797.626 433.976C798.754 433.184 799.498 432.116 799.858 430.772H802.522C802.042 432.692 801.01 434.264 799.426 435.488C797.866 436.688 795.898 437.288 793.522 437.288C791.674 437.288 790.018 436.88 788.554 436.064C787.09 435.224 785.938 434.048 785.098 432.536C784.282 431 783.874 429.212 783.874 427.172C783.874 425.132 784.282 423.344 785.098 421.808C785.914 420.272 787.054 419.096 788.518 418.28C789.982 417.464 791.65 417.056 793.522 417.056C795.394 417.056 797.026 417.464 798.418 418.28C799.834 419.096 800.914 420.2 801.658 421.592C802.426 422.96 802.81 424.484 802.81 426.164ZM800.254 426.092C800.278 424.628 799.978 423.38 799.354 422.348C798.754 421.316 797.926 420.536 796.87 420.008C795.814 419.48 794.662 419.216 793.414 419.216C791.542 419.216 789.946 419.816 788.626 421.016C787.306 422.216 786.574 423.908 786.43 426.092H800.254ZM816.637 416.984C818.989 416.984 820.909 417.716 822.397 419.18C823.885 420.62 824.629 422.72 824.629 425.48V437H822.145V425.768C822.145 423.632 821.605 422 820.525 420.872C819.469 419.744 818.017 419.18 816.169 419.18C814.273 419.18 812.761 419.78 811.633 420.98C810.505 422.18 809.941 423.944 809.941 426.272V437H807.421V417.344H809.941V420.692C810.565 419.492 811.465 418.58 812.641 417.956C813.817 417.308 815.149 416.984 816.637 416.984ZM833.478 419.468V431.672C833.478 432.872 833.706 433.7 834.162 434.156C834.618 434.612 835.422 434.84 836.574 434.84H838.878V437H836.178C834.402 437 833.082 436.592 832.218 435.776C831.354 434.936 830.922 433.568 830.922 431.672V419.468H828.186V417.344H830.922V412.412H833.478V417.344H838.878V419.468H833.478ZM860.818 426.164C860.818 427.028 860.794 427.688 860.746 428.144H844.438C844.51 429.632 844.87 430.904 845.518 431.96C846.166 433.016 847.018 433.82 848.074 434.372C849.13 434.9 850.282 435.164 851.53 435.164C853.162 435.164 854.53 434.768 855.634 433.976C856.762 433.184 857.506 432.116 857.866 430.772H860.53C860.05 432.692 859.018 434.264 857.434 435.488C855.874 436.688 853.906 437.288 851.53 437.288C849.682 437.288 848.026 436.88 846.562 436.064C845.098 435.224 843.946 434.048 843.106 432.536C842.29 431 841.882 429.212 841.882 427.172C841.882 425.132 842.29 423.344 843.106 421.808C843.922 420.272 845.062 419.096 846.526 418.28C847.99 417.464 849.658 417.056 851.53 417.056C853.402 417.056 855.034 417.464 856.426 418.28C857.842 419.096 858.922 420.2 859.666 421.592C860.434 422.96 860.818 424.484 860.818 426.164ZM858.262 426.092C858.286 424.628 857.986 423.38 857.362 422.348C856.762 421.316 855.934 420.536 854.878 420.008C853.822 419.48 852.67 419.216 851.422 419.216C849.55 419.216 847.954 419.816 846.634 421.016C845.314 422.216 844.582 423.908 844.438 426.092H858.262ZM867.949 420.836C868.501 419.612 869.341 418.664 870.469 417.992C871.621 417.32 873.025 416.984 874.681 416.984V419.612H873.997C872.173 419.612 870.709 420.104 869.605 421.088C868.501 422.072 867.949 423.716 867.949 426.02V437H865.429V417.344H867.949V420.836Z" fill="#FFDA44"/>
<g clip-path="url(#clip0)">
<path d="M231 454C281.258 454 322 413.258 322 363C322 312.742 281.258 272 231 272C180.742 272 140 312.742 140 363C140 413.258 180.742 454 231 454Z" fill="#F0F0F0"/>
<path d="M231 272V363L166.653 427.347C183.121 443.814 205.871 454 231 454C281.258 454 322 413.258 322 363C322 312.742 231 272 231 272Z" fill="#D80027"/>
<path d="M231 272C205.871 272 183.121 282.186 166.653 298.653C188.98 320.98 196.906 328.906 231 363H322C322 312.742 281.258 272 231 272Z" fill="#0052B4"/>
<path d="M202.31 363L191.197 357.772L197.115 347.009L185.047 349.318L183.518 337.126L175.112 346.093L166.706 337.126L165.176 349.318L153.109 347.009L159.027 357.772L147.913 363L159.027 368.227L153.109 378.991L165.177 376.682L166.706 388.873L175.112 379.907L183.518 388.873L185.047 376.682L197.115 378.991L191.197 368.228L202.31 363Z" fill="#FFDA44"/>
<path d="M164.269 307.609L167.967 312.778L174.026 310.859L170.252 315.974L173.95 321.143L167.919 319.134L164.145 324.249L164.192 317.893L158.162 315.884L164.222 313.964L164.269 307.609Z" fill="#FFDA44"/>
<path d="M164.269 401.751L167.967 406.921L174.026 405.001L170.252 410.116L173.95 415.286L167.919 413.277L164.145 418.391L164.192 412.035L158.162 410.026L164.222 408.107L164.269 401.751Z" fill="#FFDA44"/>
<path d="M217.018 354.68L213.32 359.85L207.261 357.93L211.035 363.045L207.337 368.215L213.368 366.206L217.142 371.32L217.094 364.964L223.125 362.955L217.065 361.036L217.018 354.68Z" fill="#FFDA44"/>
</g>
<defs>
<linearGradient id="paint0_linear" x1="0" y1="0" x2="1188" y2="726" gradientUnits="userSpaceOnUse">
<stop stop-color="#4BBEFF"/>
<stop offset="1" stop-color="#3687FF"/>
</linearGradient>
<clipPath id="clip0">
<rect width="182" height="182" fill="white" transform="translate(140 272)"/>
</clipPath>
</defs>
</svg>
